<svg id="Layer_1" height="512" viewBox="0 0 64 64" width="512" xmlns="http://www.w3.org/2000/svg" data-name="Layer 1"><path d="m52.32 28.82h6v13h-6z" fill="#475666" transform="matrix(.707 -.707 .707 .707 -8.77 49.47)"/><path d="m55.68 27.19-3-2.94a16 16 0 1 0 -8.48 8.48l2.94 3a1 1 0 0 0 1.42 0l7.07-7.07a1 1 0 0 0 .05-1.47z" fill="#596c80"/><circle cx="38" cy="18" fill="#f2f2f2" r="12"/><path d="m2 36h26v26h-26z" fill="#e6a045"/><path d="m18.5 36v8l-3.5-2-3.5 2v-8z" fill="#f2d2a9"/><g fill="#d9575d"><path d="m39 21h-2v-3a1 1 0 0 1 1-1 2 2 0 1 0 -2-2h-2a4 4 0 1 1 5 3.87z"/><path d="m37 23h2v2h-2z"/></g></svg>