<svg id="Layer_1" enable-background="new 0 0 512 512" viewBox="0 0 512 512" xmlns="http://www.w3.org/2000/svg"><g><circle cx="117.6" cy="245.3" fill="#008ad0" r="59.7"/><path d="m189.1 444.8h-142.9v-37.2c0-39.5 32-71.5 71.5-71.5 39.5 0 71.5 32 71.5 71.5v37.2z" fill="#008ad0"/><path d="m425.7 67.2h-121c-22.2 0-40.1 18-40.1 40.1v125.9l-58 58h58c0 22.2 18 40.1 40.1 40.1h121c22.2 0 40.1-18 40.1-40.1v-183.9c0-22.2-17.9-40.1-40.1-40.1zm-10.5 200.3h-100c-5.5 0-9.9-4.4-9.9-9.9s4.4-9.9 9.9-9.9h100c5.5 0 9.9 4.4 9.9 9.9s-4.4 9.9-9.9 9.9zm0-58.4h-100c-5.5 0-9.9-4.4-9.9-9.9s4.4-9.9 9.9-9.9h100c5.5 0 9.9 4.4 9.9 9.9s-4.4 9.9-9.9 9.9zm0-58.4h-100c-5.5 0-9.9-4.4-9.9-9.9s4.4-9.9 9.9-9.9h100c5.5 0 9.9 4.4 9.9 9.9s-4.4 9.9-9.9 9.9z" fill="#6c6365"/></g></svg>