<?xml version="1.0" encoding="utf-8"?>
<!-- Generator: Adobe Illustrator 27.5.0, SVG Export Plug-In . SVG Version: 6.00 Build 0)  -->
<svg version="1.1" id="Layer_1" xmlns="http://www.w3.org/2000/svg" xmlns:xlink="http://www.w3.org/1999/xlink" x="0px" y="0px"
	 viewBox="0 0 900 900" style="enable-background:new 0 0 900 900;" xml:space="preserve">
<g>
	<rect x="-1" y="813" style="fill:#AA644D;" width="901" height="87"/>
	<g>
		<g>
			<g>
				<polygon style="fill:#EDA370;" points="802.032,900 700.509,900 630.869,813 704.331,813 				"/>
				<path style="fill:#CC8064;" d="M809.005,900H699.234l-73.89-89.655h79.998L809.005,900z M701.784,900h93.275l-91.739-84.346
					h-66.927L701.784,900z"/>
			</g>
		</g>
		<g>
			<g>
				<polygon style="fill:#EDBD7D;" points="701.152,900 599.629,900 557.872,813 631.334,813 				"/>
				<path style="fill:#CC8064;" d="M706.686,900H597.958l-44.305-89.655h78.954L706.686,900z M601.299,900h94.319l-65.558-84.346
					H562.09L601.299,900z"/>
			</g>
		</g>
		<g>
			<g>
				<polygon style="fill:#DB936E;" points="600.272,900 498.749,900 484.875,813 558.337,813 				"/>
				<path style="fill:#CC8064;" d="M604.498,900H496.484l-14.72-89.655h78.241L604.498,900z M501.013,900h95.032l-39.376-84.346
					h-68.684L501.013,900z"/>
			</g>
		</g>
		<g>
			<g>
				<polygon style="fill:#EDA370;" points="499.392,900 397.868,900 411.878,813 485.34,813 				"/>
				<path style="fill:#CC8064;" d="M502.509,900H394.752l14.864-89.655H487.6L502.509,900z M400.985,900h95.289l-13.194-84.346
					h-68.941L400.985,900z"/>
			</g>
		</g>
		<g>
			<g>
				<polygon style="fill:#DB936E;" points="398.512,900 296.988,900 338.881,813 412.343,813 				"/>
				<path style="fill:#CC8064;" d="M400.777,900H292.764l44.449-89.655h78.24L400.777,900z M301.212,900h95.033l12.987-84.346
					h-68.684L301.212,900z"/>
			</g>
		</g>
		<g>
			<g>
				<polygon style="fill:#EDBD7D;" points="297.631,900 196.108,900 265.884,813 339.346,813 				"/>
				<path style="fill:#CC8064;" d="M299.302,900H190.576l74.034-89.655h78.953L299.302,900z M201.64,900h94.321l39.169-84.346
					h-67.972L201.64,900z"/>
			</g>
		</g>
		<g>
			<g>
				<polygon style="fill:#EDA370;" points="196.751,900 95.228,900 192.887,813 266.349,813 				"/>
				<path style="fill:#CC8064;" d="M198.027,900H88.257l103.618-89.655h79.996L198.027,900z M102.198,900h93.277l65.351-84.346
					h-66.928L102.198,900z"/>
			</g>
		</g>
		<g>
			<polyline style="fill:#EDA370;" points="-1,839.886 47.358,813 -1,813 -1,839.886 			"/>
			<path style="fill:#CC8064;" d="M1.311,842.194L-1,839.885l0,0v-29.54h58.411L1.311,842.194z M-1,815.654v22.39l38.305-22.39H-1z"
				/>
		</g>
		<g>
			<polyline style="fill:#EDBD7D;" points="-1,896.524 120.355,813 46.892,813 -1,839.591 -1,896.524 			"/>
			<path style="fill:#CC8064;" d="M-1,900v-61.956l47.192-27.699h82.643L-1,900z M-1,843.331v50.956l112.874-78.632H47.593
				L-1,843.331z"/>
		</g>
		<g>
			<polygon style="fill:#DB936E;" points="119.889,813 -1,900 -1,900 95.871,900 193.352,813 			"/>
			<path style="fill:#CC8064;" d="M96.883,900H-1v-3.765l120.059-85.889h81.254L96.883,900z M2.839,900h92.02l91.532-84.346h-65.672
				L2.839,900z"/>
		</g>
		<g>
			<polyline style="fill:#DB936E;" points="900,841.457 849.86,813 900,813 900,841.457 			"/>
			<path style="fill:#CC8064;" d="M900,846.016l-60.195-35.67H900V846.016z M859.915,815.654L900,836.898v-21.244H859.915z"/>
		</g>
		<g>
			<polyline style="fill:#EDBD7D;" points="900,900 776.863,813 850.325,813 900,841.16 900,900 			"/>
			<path style="fill:#CC8064;" d="M900,900l-131.62-89.655h82.646L900,839.614V900L900,900z M785.346,815.654L900,893.353v-50.646
				l-50.375-27.052H785.346z"/>
		</g>
		<g>
			<polygon style="fill:#DB936E;" points="900,900 777.328,813 703.866,813 801.389,900 900,900 			"/>
			<path style="fill:#CC8064;" d="M900,900h-99.623l-103.474-89.655h81.255L900,896.661V900z M802.401,900h92.018l-117.921-84.346
				h-65.67L802.401,900z"/>
		</g>
	</g>
</g>
<rect x="-1" y="-1" style="fill:#C8C1BB;" width="901" height="812.482"/>
<linearGradient id="SVGID_1_" gradientUnits="userSpaceOnUse" x1="449.5" y1="270.3839" x2="449.5" y2="-1.5668">
	<stop  offset="0" style="stop-color:#C8C1BB"/>
	<stop  offset="1" style="stop-color:#6D6E71"/>
</linearGradient>
<rect x="-1" y="-1" style="fill:url(#SVGID_1_);" width="901" height="329.9"/>
<linearGradient id="SVGID_00000101802149068362163540000002186358549200206219_" gradientUnits="userSpaceOnUse" x1="449.5" y1="-11861.5898" x2="449.5" y2="-11946.0938" gradientTransform="matrix(1 0 0 -1 0 -11131.4355)">
	<stop  offset="0" style="stop-color:#C8C1BB"/>
	<stop  offset="1" style="stop-color:#B0A8A5"/>
</linearGradient>
<rect x="-1" y="711.972" style="fill:url(#SVGID_00000101802149068362163540000002186358549200206219_);" width="901" height="102.511"/>
<g>
	<g style="opacity:0;">
		<path style="fill:#948983;" d="M161.564,270.51c-16.5,0-30.879,13.471-31.953,29.936l-28.387,435.236
			c-1.074,16.465,11.548,29.936,28.048,29.936h641.456c16.5,0,29.121-13.471,28.047-29.936l-28.388-435.236
			c-1.074-16.465-15.453-29.936-31.953-29.936H161.564z"/>
	</g>
	<g style="opacity:0.0462;">
		<path style="fill:#928781;" d="M161.564,270.587c-16.077,0-30.049,13.128-31.05,29.174l-26.939,432.051
			c-1.001,16.046,11.335,29.174,27.412,29.174h638.026c16.077,0,28.414-13.128,27.416-29.174L771.131,325.07
			c-0.998-16.046-2.615-34.869-3.593-41.829c-0.978-6.96-14.932-12.654-31.009-12.654H161.564z"/>
	</g>
	<g style="opacity:0.0923;">
		<path style="fill:#90857F;" d="M161.564,270.664c-15.654,0-29.221,12.785-30.15,28.411l-25.486,428.868
			c-0.929,15.626,11.119,28.411,26.773,28.411h634.596c15.654,0,27.706-12.785,26.782-28.412l-23.99-405.667
			c-0.924-15.626-2.879-33.632-4.343-40.012c-1.465-6.38-15.471-11.6-31.124-11.6H161.564z"/>
	</g>
	<g style="opacity:0.1385;">
		<path style="fill:#8E837D;" d="M161.564,270.741c-15.231,0-28.395,12.442-29.253,27.648l-24.027,425.685
			c-0.858,15.206,10.901,27.648,26.132,27.648h631.166c15.231,0,26.995-12.442,26.143-27.649l-22.674-404.593
			c-0.852-15.207-3.146-32.394-5.097-38.194c-1.951-5.8-16.009-10.545-31.24-10.545H161.564z"/>
	</g>
	<g style="opacity:0.1846;">
		<path style="fill:#8C817B;" d="M161.564,270.818c-14.808,0-27.569,12.098-28.359,26.885l-22.562,422.503
			c-0.79,14.787,10.68,26.885,25.487,26.885h627.737c14.808,0,26.283-12.098,25.5-26.885l-21.35-403.52
			c-0.782-14.787-3.417-31.156-5.854-36.376c-2.437-5.22-16.547-9.491-31.355-9.491H161.564z"/>
	</g>
	<g style="opacity:0.2308;">
		<path style="fill:#8A7F79;" d="M161.564,270.895c-14.385,0-26.745,11.754-27.468,26.121l-21.09,419.322
			c-0.723,14.367,10.455,26.121,24.84,26.121h624.307c14.385,0,25.569-11.755,24.854-26.122l-20.019-402.448
			c-0.715-14.367-3.692-29.918-6.615-34.558c-2.924-4.64-17.085-8.436-31.47-8.436H161.564z"/>
	</g>
	<g style="opacity:0.2769;">
		<path style="fill:#887D77;" d="M161.565,270.972c-13.962,0-25.922,11.41-26.58,25.356L115.372,712.47
			c-0.657,13.946,10.228,25.357,24.19,25.357h620.877c13.962,0,24.854-11.411,24.205-25.357l-18.68-401.377
			c-0.649-13.946-3.97-28.679-7.38-32.739c-3.41-4.06-17.623-7.382-31.585-7.382H161.565z"/>
	</g>
	<g style="opacity:0.3231;">
		<path style="fill:#867B76;" d="M161.565,271.049c-13.539,0-25.101,11.066-25.695,24.592l-18.129,412.962
			c-0.594,13.525,9.997,24.592,23.536,24.592h617.447c13.538,0,24.136-11.067,23.55-24.592L764.94,308.295
			c-0.586-13.526-4.253-27.44-8.149-30.919c-3.897-3.48-18.161-6.327-31.7-6.327H161.565z"/>
	</g>
	<g style="opacity:0.3692;">
		<path style="fill:#847974;" d="M161.565,271.126c-13.115,0-24.281,10.722-24.814,23.827l-16.638,409.783
			c-0.532,13.105,9.763,23.827,22.879,23.827h614.017c13.115,0,23.417-10.722,22.892-23.827l-15.978-399.237
			c-0.525-13.105-4.54-26.2-8.923-29.1c-4.383-2.9-18.7-5.273-31.815-5.273H161.565z"/>
	</g>
	<g style="opacity:0.4154;">
		<path style="fill:#827772;" d="M161.565,271.203c-12.692,0-23.463,10.377-23.936,23.061l-15.141,406.606
			c-0.472,12.684,9.526,23.061,22.218,23.061h610.587c12.692,0,22.696-10.378,22.23-23.061L762.909,302.7
			c-0.466-12.684-4.831-24.96-9.7-27.279c-4.869-2.32-19.238-4.218-31.93-4.218H161.565z"/>
	</g>
	<g style="opacity:0.4615;">
		<path style="fill:#807570;" d="M161.565,271.28c-12.269,0-22.647,10.033-23.061,22.295l-13.636,403.429
			c-0.415,12.262,9.285,22.295,21.554,22.295h607.157c12.269,0,21.973-10.033,21.564-22.295l-13.244-397.101
			c-0.409-12.262-5.125-23.719-10.481-25.459c-5.356-1.74-19.776-3.164-32.045-3.164H161.565z"/>
	</g>
	<g style="opacity:0.5077;">
		<path style="fill:#7E736E;" d="M161.565,271.357c-11.846,0-21.832,9.688-22.191,21.529L127.25,693.138
			c-0.359,11.841,9.04,21.529,20.886,21.529h603.727c11.846,0,21.248-9.688,20.893-21.529l-11.864-396.034
			c-0.355-11.841-5.425-22.478-11.267-23.638c-5.842-1.16-20.314-2.109-32.161-2.109H161.565z"/>
	</g>
	<g style="opacity:0.5538;">
		<path style="fill:#7C716C;" d="M161.565,271.433c-11.423,0-21.019,9.343-21.324,20.762l-10.605,397.077
			c-0.305,11.419,8.792,20.762,20.215,20.762h600.297c11.423,0,20.521-9.343,20.219-20.762l-10.475-394.968
			c-0.303-11.419-5.729-21.236-12.057-21.816c-6.329-0.58-20.853-1.055-32.276-1.055H161.565z"/>
	</g>
	<g style="opacity:0.6;">
		<path style="fill:#7A6F6A;" d="M161.565,271.51c-11,0-20.207,8.998-20.461,19.995l-9.077,393.902
			c-0.253,10.997,8.539,19.995,19.539,19.995h596.867c11,0,19.793-8.998,19.539-19.995l-9.077-393.902
			c-0.253-10.997-9.461-19.995-20.461-19.995H161.565z"/>
	</g>
</g>
<g>
	<rect x="168.176" y="287.121" style="fill:#F8F7F5;" width="563.647" height="378.386"/>
	
		<linearGradient id="SVGID_00000031204993325013150080000013584137347943609519_" gradientUnits="userSpaceOnUse" x1="449.9997" y1="299.6493" x2="449.9997" y2="288.727">
		<stop  offset="0" style="stop-color:#FFFFFF"/>
		<stop  offset="0.1314" style="stop-color:#FCFCFC"/>
		<stop  offset="0.2474" style="stop-color:#F1F1F1"/>
		<stop  offset="0.3576" style="stop-color:#DFDFDF"/>
		<stop  offset="0.4643" style="stop-color:#C6C5C5"/>
		<stop  offset="0.5684" style="stop-color:#A6A4A5"/>
		<stop  offset="0.6706" style="stop-color:#7E7C7D"/>
		<stop  offset="0.7693" style="stop-color:#504D4E"/>
		<stop  offset="0.8535" style="stop-color:#231F20"/>
	</linearGradient>
	
		<rect x="168.176" y="290.121" style="opacity:0.7;fill:url(#SVGID_00000031204993325013150080000013584137347943609519_);" width="563.647" height="9.564"/>
	
		<linearGradient id="SVGID_00000111902679158024141950000005609964893308539023_" gradientUnits="userSpaceOnUse" x1="-11679.2324" y1="-299.7845" x2="-11679.2324" y2="-308.2883" gradientTransform="matrix(0 -1 1 0 480.0557 -11200.7051)">
		<stop  offset="0" style="stop-color:#FFFFFF"/>
		<stop  offset="0.1075" style="stop-color:#FAFAFA"/>
		<stop  offset="0.2412" style="stop-color:#EBEAEA"/>
		<stop  offset="0.3888" style="stop-color:#D2D1D1"/>
		<stop  offset="0.5465" style="stop-color:#AFAEAE"/>
		<stop  offset="0.7122" style="stop-color:#828081"/>
		<stop  offset="0.882" style="stop-color:#4D494A"/>
		<stop  offset="1" style="stop-color:#231F20"/>
	</linearGradient>
	
		<rect x="170.739" y="290.466" style="opacity:0.3;fill:url(#SVGID_00000111902679158024141950000005609964893308539023_);" width="9.564" height="376.122"/>
	
		<linearGradient id="SVGID_00000030453527120570257090000007008163657950162856_" gradientUnits="userSpaceOnUse" x1="733.7322" y1="-11479.1055" x2="733.7322" y2="-11487.6094" gradientTransform="matrix(0 1 -1 0 -10759.001 -255.2046)">
		<stop  offset="0" style="stop-color:#FFFFFF"/>
		<stop  offset="0.1075" style="stop-color:#FAFAFA"/>
		<stop  offset="0.2412" style="stop-color:#EBEAEA"/>
		<stop  offset="0.3888" style="stop-color:#D2D1D1"/>
		<stop  offset="0.5465" style="stop-color:#AFAEAE"/>
		<stop  offset="0.7122" style="stop-color:#828081"/>
		<stop  offset="0.882" style="stop-color:#4D494A"/>
		<stop  offset="1" style="stop-color:#231F20"/>
	</linearGradient>
	
		<rect x="720.073" y="290.466" style="opacity:0.3;fill:url(#SVGID_00000030453527120570257090000007008163657950162856_);" width="9.564" height="376.122"/>
	<polygon style="fill:#D5B898;" points="148.222,685.462 141.565,692.119 758.435,692.119 751.778,685.462 	"/>
	<polygon style="fill:#EFD1B9;" points="751.778,267.167 758.435,260.51 141.565,260.51 148.222,267.167 	"/>
	<polygon style="fill:#C6A283;" points="171.52,290.466 171.52,290.465 728.479,290.465 728.479,290.466 751.778,267.167 
		148.222,267.167 	"/>
	<polygon style="fill:#EFD1B9;" points="728.479,662.164 171.52,662.164 171.52,662.163 148.222,685.462 751.778,685.462 
		728.479,662.163 	"/>
	<polygon style="fill:#EFD1B9;" points="751.778,267.167 751.778,267.167 751.778,685.462 751.778,685.462 758.435,692.119 
		758.435,260.51 	"/>
	<polygon style="fill:#EFD1B9;" points="148.222,685.462 148.222,267.167 148.222,267.167 141.565,260.51 141.565,692.119 
		148.222,685.462 	"/>
	<polygon style="fill:#D5B898;" points="728.479,662.163 751.778,685.462 751.778,685.462 751.778,267.167 751.778,267.167 
		728.479,290.466 	"/>
	<polygon style="fill:#D5B898;" points="171.52,290.466 148.222,267.167 148.222,267.167 148.222,685.462 148.222,685.462 
		171.52,662.163 	"/>
</g>
<g>
	<g>
		<g>
			<path style="opacity:0;fill:#FFFFE6;" d="M429.668,194.269l-15.434,17.649c0,0-137.245,167.436-158.339,235.081
				c-19.152,61.416-2.003,198.506,193.674,198.506c196.392,0,213.679-136.934,194.504-198.506
				c-21.067-67.649-158.305-235.081-158.305-235.081l-8.858-18.239L429.668,194.269z"/>
			<path style="opacity:0.0269;fill:#FFFFE7;" d="M430.342,194.594l-14.921,17.076c0,0-132.687,165.458-153.082,230.906
				c-18.516,59.421-1.936,192.058,187.243,192.058c189.87,0,206.584-132.485,188.046-192.058
				C617.261,377.124,484.58,211.669,484.58,211.669l-8.564-17.647L430.342,194.594z"/>
			<path style="opacity:0.0538;fill:#FFFFE8;" d="M431.017,194.918l-14.409,16.502c0,0-128.13,163.481-147.824,226.731
				c-17.88,57.426-1.87,185.609,180.812,185.609c183.349,0,199.488-128.037,181.587-185.609
				C611.516,374.898,483.392,211.42,483.392,211.42l-8.27-17.054L431.017,194.918z"/>
			<path style="opacity:0.0808;fill:#FFFFE9;" d="M431.691,195.242l-13.896,15.929c0,0-123.573,161.503-142.566,222.556
				c-17.244,55.431-1.803,179.161,174.381,179.161c176.828,0,192.393-123.588,175.128-179.161
				c-18.968-61.056-142.535-222.556-142.535-222.556l-7.976-16.462L431.691,195.242z"/>
			<path style="opacity:0.1077;fill:#FFFFEA;" d="M432.366,195.567l-13.384,15.356c0,0-119.016,159.526-137.308,218.381
				c-16.608,53.435-1.737,172.712,167.95,172.712c170.306,0,185.298-119.14,168.67-172.712
				c-18.269-58.859-137.279-218.381-137.279-218.381l-7.681-15.869L432.366,195.567z"/>
			<path style="opacity:0.1346;fill:#FFFFEB;" d="M433.04,195.891l-12.871,14.782c0,0-114.458,157.548-132.051,214.206
				c-15.973,51.44-1.67,166.264,161.519,166.264c163.785,0,178.202-114.692,162.211-166.264
				c-17.569-56.661-132.022-214.206-132.022-214.206l-7.387-15.277L433.04,195.891z"/>
			<path style="opacity:0.1615;fill:#FFFFEC;" d="M433.715,196.215l-12.359,14.209c0,0-109.901,155.571-126.793,210.032
				c-15.337,49.445-1.604,159.815,155.088,159.815c157.264,0,171.107-110.243,155.753-159.815
				c-16.87-54.463-126.765-210.032-126.765-210.032l-7.093-14.684L433.715,196.215z"/>
			<path style="opacity:0.1885;fill:#FFFFED;" d="M434.389,196.54l-11.846,13.636c0,0-105.344,153.593-121.535,205.856
				c-14.701,47.45-1.537,153.366,148.656,153.366c150.742,0,164.012-105.795,149.294-153.366
				c-16.17-52.266-121.509-205.856-121.509-205.856l-6.799-14.092L434.389,196.54z"/>
			<path style="opacity:0.2154;fill:#FFFFEE;" d="M435.064,196.864l-11.334,13.062c0,0-100.786,151.616-116.277,201.682
				c-14.065,45.455-1.471,146.918,142.225,146.918c144.221,0,156.916-101.347,142.835-146.918
				c-15.471-50.068-116.252-201.682-116.252-201.682l-6.505-13.499L435.064,196.864z"/>
			<path style="opacity:0.2423;fill:#FFFFEF;" d="M435.738,197.189l-10.821,12.489c0,0-96.229,149.639-111.019,197.507
				c-13.429,43.46-1.404,140.469,135.794,140.469c137.7,0,149.821-96.898,136.376-140.469
				c-14.771-47.871-110.995-197.507-110.995-197.507l-6.211-12.907L435.738,197.189z"/>
			<path style="opacity:0.2692;fill:#FFFFF0;" d="M436.413,197.513l-10.309,11.916c0,0-91.672,147.661-105.762,193.332
				c-12.793,41.465-1.338,134.021,129.363,134.021c131.178,0,142.725-92.45,129.918-134.021
				c-14.071-45.673-105.739-193.332-105.739-193.332l-5.917-12.314L436.413,197.513z"/>
			<path style="opacity:0.2962;fill:#FFFFF1;" d="M437.087,197.837l-9.796,11.342c0,0-87.114,145.684-100.504,189.157
				c-12.157,39.47-1.271,127.572,122.932,127.572c124.657,0,135.63-88.002,123.459-127.572
				C559.807,354.861,472.697,209.18,472.697,209.18l-5.622-11.722L437.087,197.837z"/>
			<path style="opacity:0.3231;fill:#FFFFF2;" d="M437.762,198.161l-9.284,10.769c0,0-82.557,143.706-95.246,184.982
				c-11.521,37.474-1.205,121.124,116.501,121.124c118.136,0,128.535-83.553,117-121.124
				c-12.672-41.278-95.226-184.982-95.226-184.982l-5.328-11.129L437.762,198.161z"/>
			<path style="opacity:0.35;fill:#FFFFF3;" d="M438.436,198.486l-8.771,10.196c0,0-78,141.729-89.988,180.807
				c-10.885,35.479-1.138,114.675,110.07,114.675c111.614,0,121.439-79.105,110.542-114.675
				c-11.973-39.08-89.969-180.807-89.969-180.807l-5.034-10.537L438.436,198.486z"/>
			<path style="opacity:0.3769;fill:#FFFFF3;" d="M439.111,198.81l-8.259,9.622c0,0-73.442,139.751-84.73,176.632
				c-10.249,33.484-1.072,108.227,103.639,108.227c105.093,0,114.344-74.657,104.083-108.227
				c-11.273-36.883-84.712-176.632-84.712-176.632l-4.74-9.944L439.111,198.81z"/>
			<path style="opacity:0.4038;fill:#FFFFF4;" d="M439.785,199.135l-7.746,9.049c0,0-68.885,137.774-79.473,172.457
				c-9.613,31.489-1.005,101.778,97.208,101.778c98.572,0,107.248-70.208,97.624-101.778
				c-10.574-34.685-79.456-172.457-79.456-172.457l-4.446-9.352L439.785,199.135z"/>
			<path style="opacity:0.4308;fill:#FFFFF5;" d="M440.46,199.459l-7.234,8.476c0,0-64.328,135.796-74.215,168.282
				c-8.977,29.494-0.939,95.329,90.777,95.329c92.05,0,100.153-65.76,91.166-95.329c-9.874-32.487-74.199-168.282-74.199-168.282
				l-4.152-8.759L440.46,199.459z"/>
			<path style="opacity:0.4577;fill:#FFFFF6;" d="M441.135,199.783l-6.721,7.902c0,0-59.77,133.819-68.957,164.107
				c-8.341,27.499-0.872,88.881,84.345,88.881c85.529,0,93.058-61.312,84.707-88.881c-9.174-30.29-68.942-164.107-68.942-164.107
				l-3.858-8.167L441.135,199.783z"/>
			<path style="opacity:0.4846;fill:#FFFFF7;" d="M441.809,200.108l-6.209,7.329c0,0-55.213,131.842-63.699,159.932
				c-7.705,25.504-0.806,82.432,77.914,82.432c79.008,0,85.962-56.863,78.249-82.432c-8.475-28.092-63.686-159.932-63.686-159.932
				l-3.564-7.574L441.809,200.108z"/>
			<path style="opacity:0.5115;fill:#FFFFF8;" d="M442.484,200.432l-5.696,6.756c0,0-50.656,129.864-58.442,155.757
				c-7.069,23.509-0.739,75.984,71.483,75.984c72.486,0,78.867-52.415,71.79-75.984c-7.776-25.895-58.429-155.757-58.429-155.757
				l-3.27-6.982L442.484,200.432z"/>
			<path style="opacity:0.5385;fill:#FFFFF9;" d="M443.158,200.756l-5.184,6.182c0,0-46.099,127.886-53.184,151.582
				c-6.433,21.514-0.673,69.535,65.052,69.535c65.965,0,71.772-47.967,65.331-69.535c-7.076-23.697-53.172-151.582-53.172-151.582
				l-2.975-6.389L443.158,200.756z"/>
			<path style="opacity:0.5654;fill:#FFFFFA;" d="M443.833,201.081l-4.671,5.609c0,0-41.541,125.909-47.926,147.407
				c-5.797,19.518-0.606,63.087,58.621,63.087c59.444,0,64.676-43.518,58.872-63.087c-6.376-21.499-47.916-147.407-47.916-147.407
				l-2.681-5.797L443.833,201.081z"/>
			<path style="opacity:0.5923;fill:#FFFFFB;" d="M444.507,201.405l-4.159,5.036c0,0-36.984,123.932-42.668,143.232
				c-5.161,17.523-0.54,56.638,52.19,56.638c52.922,0,57.581-39.07,52.414-56.638c-5.677-19.302-42.659-143.232-42.659-143.232
				l-2.387-5.204L444.507,201.405z"/>
			<path style="opacity:0.6192;fill:#FFFFFC;" d="M445.182,201.729l-3.646,4.462c0,0-32.427,121.954-37.41,139.058
				c-4.525,15.528-0.473,50.19,45.759,50.19c46.401,0,50.486-34.622,45.955-50.19c-4.977-17.104-37.402-139.058-37.402-139.058
				l-2.093-4.612L445.182,201.729z"/>
			<path style="opacity:0.6462;fill:#FFFFFD;" d="M445.856,202.054l-3.134,3.889c0,0-27.869,119.977-32.153,134.883
				c-3.889,13.533-0.407,43.741,39.328,43.741c39.88,0,43.39-30.173,39.496-43.741c-4.278-14.907-32.146-134.883-32.146-134.883
				l-1.799-4.019L445.856,202.054z"/>
			<path style="opacity:0.6731;fill:#FFFFFE;" d="M446.531,202.378l-2.621,3.316c0,0-23.312,117.999-26.895,130.708
				c-3.253,11.538-0.34,37.292,32.897,37.292c33.358,0,36.295-25.725,33.038-37.292c-3.578-12.709-26.889-130.708-26.889-130.708
				l-1.505-3.427L446.531,202.378z"/>
			<path style="opacity:0.7;fill:#FFFFFF;" d="M447.205,202.702l-2.109,2.742c0,0-18.755,116.022-21.637,126.533
				c-2.617,9.543-0.274,30.844,26.466,30.844c26.837,0,29.199-21.277,26.579-30.844c-2.879-10.512-21.633-126.533-21.633-126.533
				l-1.211-2.834L447.205,202.702z"/>
		</g>
	</g>
	<g>
		<path style="fill:#FFFFFF;" d="M471.339,199.474c0,11.773-9.545,21.319-21.319,21.319c-11.773,0-21.318-9.545-21.318-21.319
			c0-11.774,9.545-21.318,21.318-21.318C461.794,178.155,471.339,187.7,471.339,199.474z"/>
		<rect x="436.614" y="210.476" style="fill:#231F20;" width="26.666" height="9.799"/>
		<rect x="427.383" y="186.487" style="fill:#FFFFFF;" width="10.377" height="21.3"/>
		<rect x="462.28" y="186.487" style="fill:#FFFFFF;" width="10.378" height="21.3"/>
		<g>
			<path style="fill:#FFFFFF;" d="M427.382,186.487l-8.835,10.089c-1.812,2.069-3.294,6.012-3.294,8.762v5.038
				c0,2.75,1.909,3.809,4.242,2.353l7.887-4.921"/>
		</g>
		<g>
			<path style="fill:#FFFFFF;" d="M472.659,186.487l8.835,10.089c1.812,2.069,3.294,6.012,3.294,8.762v5.038
				c0,2.75-1.909,3.809-4.242,2.353l-7.887-4.921"/>
		</g>
		<rect x="426.383" y="185.029" style="fill:#231F20;" width="10.377" height="21.3"/>
		<rect x="463.28" y="185.029" style="fill:#231F20;" width="10.378" height="21.3"/>
		<path style="fill:#0F0D11;" d="M470.354,197.27c0,11.229-9.104,20.334-20.334,20.334c-11.23,0-20.333-9.105-20.333-20.334
			c0-11.23,9.104-20.333,20.333-20.333C461.25,176.936,470.354,186.04,470.354,197.27z"/>
		<path style="fill:#2C2933;" d="M470.354,193.876c0,11.229-9.104,20.334-20.334,20.334c-11.23,0-20.333-9.105-20.333-20.334
			c0-11.23,9.104-20.333,20.333-20.333C461.25,173.542,470.354,182.646,470.354,193.876z"/>
		<path style="fill:#0F0D11;" d="M463.149,194.269c0,7.25-5.878,13.129-13.129,13.129c-7.25,0-13.128-5.879-13.128-13.129
			c0-7.25,5.878-13.129,13.128-13.129C457.271,181.141,463.149,187.019,463.149,194.269z"/>
		<g>
			<path style="fill:#35292D;" d="M463.28,220.274l-2.767,12.419c-0.598,2.684-3.337,4.88-6.087,4.88h-8.811
				c-2.75,0-5.489-2.196-6.087-4.88l-2.767-12.418"/>
		</g>
		<g>
			<path style="fill:#3F3A49;" d="M426.382,185.029l-8.835,10.089c-1.812,2.069-3.294,6.012-3.294,8.762v5.038
				c0,2.75,1.909,3.809,4.242,2.353l7.887-4.921"/>
		</g>
		<g>
			<path style="fill:#3F3A49;" d="M473.659,185.029l8.835,10.089c1.812,2.069,3.294,6.012,3.294,8.762v5.038
				c0,2.75-1.909,3.809-4.242,2.353l-7.887-4.921"/>
		</g>
		<path style="fill:#363233;" d="M431.835,176.119v-45.944c0-1.299,1.057-2.357,2.357-2.357h32.873c1.3,0,1.072,1.058,1.072,2.357
			v45.944h2.57v-45.944c0-2.716-0.926-4.926-3.642-4.926h-32.873c-2.716,0-4.927,2.21-4.927,4.926v45.944H431.835z"/>
		<rect x="448.385" y="115.13" style="fill:#363233;" width="3.204" height="12.688"/>
		<path style="fill:#363233;" d="M449.987,130.546c2.206,0,3.993-1.4,3.993-3.128h-7.987
			C445.993,129.146,447.782,130.546,449.987,130.546z"/>
		<g>
			<polygon style="fill:#363233;" points="433.815,172.907 425.768,172.907 425.768,176.119 433.5,176.119 			"/>
			<polygon style="fill:#363233;" points="465.866,172.907 466.213,176.119 474.206,176.119 474.206,172.907 			"/>
		</g>
		<path style="fill:#363233;" d="M427.256,177c0,0.822-0.667,1.488-1.488,1.488l0,0c-0.822,0-1.488-0.666-1.488-1.488v-4.96
			c0-0.822,0.667-1.488,1.488-1.488l0,0c0.821,0,1.488,0.667,1.488,1.488V177z"/>
		<path style="fill:#363233;" d="M475.693,177c0,0.822-0.666,1.488-1.488,1.488l0,0c-0.822,0-1.488-0.666-1.488-1.488v-4.96
			c0-0.822,0.666-1.488,1.488-1.488l0,0c0.822,0,1.488,0.667,1.488,1.488V177z"/>
	</g>
</g>
<defs>
	<filter id="Adobe_OpacityMaskFilter" filterUnits="userSpaceOnUse" x="141.565" y="827.291" width="616.87" height="72.709">
		<feColorMatrix  type="matrix" values="1 0 0 0 0  0 1 0 0 0  0 0 1 0 0  0 0 0 1 0"/>
	</filter>
</defs>
<mask maskUnits="userSpaceOnUse" x="141.565" y="827.291" width="616.87" height="72.709" id="SVGID_00000008858908318275618950000012512692698083522488_">
	<g style="filter:url(#Adobe_OpacityMaskFilter);">
		
			<linearGradient id="SVGID_00000065073263734610220820000010271734246655116953_" gradientUnits="userSpaceOnUse" x1="450.8242" y1="626.4822" x2="450.8242" y2="906.6435">
			<stop  offset="0" style="stop-color:#FFFFFF"/>
			<stop  offset="0.0838" style="stop-color:#F7F7F7"/>
			<stop  offset="0.2156" style="stop-color:#E0E0E0"/>
			<stop  offset="0.379" style="stop-color:#BBBBBB"/>
			<stop  offset="0.5675" style="stop-color:#888888"/>
			<stop  offset="0.7746" style="stop-color:#484848"/>
			<stop  offset="0.9816" style="stop-color:#000000"/>
		</linearGradient>
		
			<rect x="67.324" y="817.482" style="fill:url(#SVGID_00000065073263734610220820000010271734246655116953_);" width="767" height="82.518"/>
	</g>
</mask>
<g style="opacity:0.4;mask:url(#SVGID_00000008858908318275618950000012512692698083522488_);">
	<polygon style="fill:#FFFFFF;" points="751.778,833.948 758.435,827.291 141.565,827.291 148.222,833.948 	"/>
	<polygon style="fill:#F9F8F6;" points="171.52,857.247 728.479,857.247 728.479,857.247 751.778,833.948 148.222,833.948 
		171.52,857.247 	"/>
	<polygon style="fill:#DDDBCF;" points="721.823,863.904 728.479,857.247 728.479,857.247 171.52,857.247 171.52,857.247 
		178.177,863.904 	"/>
	<polygon style="fill:#F4EAE6;" points="751.778,833.948 751.778,900 758.435,900 758.435,827.291 751.778,833.948 	"/>
	<polygon style="fill:#F1F2F2;" points="148.222,833.948 148.222,833.948 141.565,827.291 141.565,900 148.222,900 	"/>
	<polygon style="fill:#E5DED8;" points="728.479,900 751.778,900 751.778,833.948 751.778,833.948 728.479,857.247 	"/>
	<polygon style="fill:#E5DED8;" points="171.52,857.247 148.222,833.948 148.222,833.948 148.222,900 171.52,900 	"/>
	<polygon style="fill:#D0C7BE;" points="721.823,900 728.479,900 728.479,857.247 721.823,863.904 	"/>
	<polygon style="fill:#D0C7BE;" points="178.177,863.904 171.52,857.247 171.52,900 178.177,900 	"/>
	<rect x="178.177" y="863.904" style="fill:#FFFFFF;" width="543.646" height="36.096"/>
</g>
<path style="fill:#363233;" d="M900,111.78h-15.235L900,104.967v-5.874l-25.117,11.232V79.454H900v-5.362h-13.169L900,68.203V62.33
	l-26.305,11.763h-2.986l-70.224-31.401H900v-5.362H-1v5.362h101.039L29.815,74.092H26.83L-1,62.095v5.873l14.695,6.124H-1v5.362
	h26.641v30.871L-1,98.859v5.874l16.761,7.047H-1v5.361h901V111.78z M857.574,74.092H717.738l69.918-31.264L857.574,74.092z
	 M112.869,42.828l69.918,31.264H42.95L112.869,42.828z M31.003,79.454h69.039l-69.039,30.871V79.454z M40.885,111.78l71.984-32.189
	l71.984,32.189H40.885z M194.734,110.325l-69.038-30.871h69.038V110.325z M195.922,74.092l-70.224-31.401h143.433l-70.224,31.401
	H195.922z M281.698,42.947l69.654,31.146H212.043L281.698,42.947z M200.096,79.454h69.038l-69.038,30.871V79.454z M209.977,111.78
	l71.72-32.071l71.72,32.071H209.977z M363.299,110.325l-69.039-30.871h69.039V110.325z M364.487,74.092l-70.224-31.401h143.434
	l-70.224,31.401H364.487z M450.263,42.947l69.654,31.146H380.608L450.263,42.947z M368.661,79.454h69.038l-69.038,30.871V79.454z
	 M378.543,111.78l71.72-32.071l71.72,32.071H378.543z M531.864,110.325l-69.038-30.871h69.038V110.325z M533.052,74.092
	l-70.224-31.401h143.434l-70.224,31.401H533.052z M618.827,42.946l69.654,31.146H549.173L618.827,42.946z M537.225,79.454h69.039
	l-69.039,30.871V79.454z M547.107,111.78l71.72-32.071l71.72,32.071H547.107z M700.429,110.325L631.39,79.454h69.039V110.325z
	 M701.617,74.092l-70.225-31.401h143.434l-70.223,31.401H701.617z M705.79,79.454h69.038l-69.038,30.871V79.454z M715.672,111.78
	l71.984-32.188l71.984,32.188H715.672z M869.521,110.325l-69.039-30.871h69.039V110.325z"/>
<g>
	<g>
		<g>
			<g>
				<g>
					<path style="opacity:0.1;fill:#FFFFE6;" d="M89.716,212.247c0,0,7.845,45.699,18.229,99.022s23.305,114.268,33.458,144.76
						c19.872,59.679,47.409,134.206,157.826,134.206c57.813,0,95.364-39.353,111.307-85.841
						c15.943-46.488,10.277-100.111-18.344-128.651c-33.441-33.345-96.315-78.811-150.829-115.941
						c-54.514-37.13-100.669-65.924-100.669-65.924L89.716,212.247z"/>
					<path style="opacity:0.1231;fill:#FFFFE7;" d="M90.086,211.871c0,0,7.849,44.586,18.292,96.826
						c10.311,51.961,23.142,111.417,33.333,141.639c20.137,59.553,47.807,132.157,154.487,134.773
						c56.67,1.39,93.986-35.146,110.04-80.227c16.053-45.081,10.819-97.91-17.69-126.715
						c-33.087-33.349-95.111-79.442-149.015-116.977c-53.275-37.097-98.561-65.82-99.017-66.448
						c-0.233-0.321-18.687,6.096-18.687,6.096L90.086,211.871z"/>
					<path style="opacity:0.1462;fill:#FFFFE8;" d="M90.456,211.496c0,0,7.853,43.473,18.356,94.63
						c10.239,50.601,22.978,108.567,33.207,138.518c20.403,59.426,48.257,130.176,151.149,135.341
						c55.579,2.79,92.608-30.938,108.772-74.612c16.164-43.674,11.36-95.709-17.035-124.778
						c-32.734-33.354-93.907-80.066-147.201-118.014c-52.04-37.055-96.454-65.716-97.365-66.971
						c-0.465-0.641-18.321,5.326-18.321,5.326L90.456,211.496z"/>
					<path style="opacity:0.1692;fill:#FFFFE9;" d="M90.827,211.121c0,0,7.963,42.337,18.419,92.434
						c10.272,49.218,22.814,105.716,33.082,135.397c20.669,59.3,48.76,128.272,147.81,135.908
						c54.542,4.205,91.231-26.73,107.505-68.998c16.274-42.267,11.901-93.508-16.381-122.841
						c-32.381-33.358-92.706-80.683-145.387-119.051c-50.808-37.004-94.347-65.612-95.713-67.495
						c-0.698-0.962-17.956,4.556-17.956,4.556L90.827,211.121z"/>
					<path style="opacity:0.1923;fill:#FFFFEA;" d="M91.197,210.746c0,0,8,41.217,18.483,90.238
						c10.232,47.85,22.651,102.865,32.956,132.276c20.935,59.173,49.316,126.459,144.472,136.476
						c53.561,5.638,89.853-22.523,106.238-63.383c16.385-40.86,12.506-91.368-15.726-120.905
						c-31.956-33.432-91.506-81.292-143.573-120.087c-49.581-36.943-92.24-65.509-94.062-68.019
						c-0.931-1.282-17.59,3.785-17.59,3.785L91.197,210.746z"/>
					<path style="opacity:0.2154;fill:#FFFFEB;" d="M91.567,210.37c0,0,8.035,40.096,18.546,88.042
						c10.19,46.482,22.487,100.015,32.831,129.156c21.201,59.047,49.921,124.75,141.133,137.043
						c52.635,7.094,88.475-18.315,104.97-57.768c16.495-39.453,13.06-89.179-15.072-118.968
						c-31.589-33.449-90.309-81.893-141.759-121.124c-48.357-36.873-90.133-65.405-92.41-68.543
						c-1.163-1.603-17.225,3.015-17.225,3.015L91.567,210.37z"/>
					<path style="opacity:0.2385;fill:#FFFFEC;" d="M91.938,209.995c0,0,8.069,38.975,18.61,85.846
						c10.146,45.114,22.263,97.186,32.706,126.035c21.344,58.965,50.573,123.157,137.795,137.611
						c51.767,8.579,87.097-14.108,103.703-52.154s13.613-86.988-14.417-117.031c-31.223-33.465-89.115-82.486-139.945-122.16
						c-47.138-36.793-88.025-65.301-90.758-69.066c-1.396-1.924-16.859,2.245-16.859,2.245L91.938,209.995z"/>
					<path style="opacity:0.2615;fill:#FFFFED;" d="M92.308,209.62c0,0,8.101,37.853,18.673,83.65
						c10.099,43.746,22.093,94.338,32.58,122.914c21.595,58.844,51.266,121.693,134.456,138.179
						c50.955,10.097,85.719-9.9,102.435-46.539c16.716-36.639,14.165-84.796-13.763-115.095
						c-30.859-33.478-87.925-83.071-138.13-123.197c-45.925-36.704-85.918-65.197-89.106-69.59
						c-1.629-2.244-16.494,1.475-16.494,1.475L92.308,209.62z"/>
					<path style="opacity:0.2846;fill:#FFFFEE;" d="M92.678,209.245c0,0,8.131,36.732,18.737,81.454
						c10.05,42.378,21.924,91.49,32.455,119.793c21.849,58.723,51.994,120.372,131.118,138.746
						c50.196,11.657,84.341-5.692,101.168-40.925s14.716-82.603-13.108-113.158c-30.497-33.49-86.739-83.648-136.316-124.233
						c-44.716-36.606-83.811-65.094-87.454-70.114c-1.861-2.565-16.128,0.705-16.128,0.705L92.678,209.245z"/>
					<path style="opacity:0.3077;fill:#FFFFEF;" d="M93.049,208.87c0,0,8.159,35.611,18.8,79.258
						c9.999,41.011,21.756,88.641,32.329,116.672c22.104,58.602,52.749,119.203,127.78,139.314
						c49.488,13.265,82.964-1.485,99.9-35.31c16.937-33.825,15.265-80.408-12.454-111.222
						c-30.136-33.5-85.557-84.216-134.502-125.27c-43.513-36.498-81.704-64.99-85.803-70.637
						c-2.094-2.885-15.763-0.065-15.763-0.065L93.049,208.87z"/>
					<path style="opacity:0.3308;fill:#FFFFF0;" d="M93.419,208.495c0,0,8.184,34.491,18.864,77.062
						c9.945,39.644,21.589,85.792,32.204,113.552c22.362,58.479,53.522,118.197,124.441,139.881
						c48.826,14.929,81.586,2.723,98.633-29.695c17.047-32.418,15.813-78.211-11.799-109.285
						c-29.776-33.509-84.38-84.774-132.688-126.306c-42.316-36.381-79.597-64.886-84.151-71.161
						c-2.327-3.206-15.397-0.835-15.397-0.835L93.419,208.495z"/>
					<path style="opacity:0.3538;fill:#FFFFF1;" d="M93.79,208.119c0,0,8.207,33.37,18.927,74.866
						c9.888,38.277,21.423,82.943,32.078,110.431c22.621,58.356,54.3,117.361,121.103,140.449
						c48.202,16.659,80.208,6.93,97.365-24.081c17.158-31.011,16.359-76.013-11.145-107.349
						c-29.419-33.516-83.21-85.324-130.874-127.343c-41.125-36.255-77.489-64.782-82.499-71.685
						c-2.559-3.527-15.032-1.605-15.032-1.605L93.79,208.119z"/>
					<path style="opacity:0.3769;fill:#FFFFF2;" d="M94.16,207.744c0,0,8.228,32.25,18.991,72.67
						c9.828,36.911,21.258,80.094,31.953,107.31c22.883,58.232,55.073,116.702,117.764,141.017
						c47.607,18.464,78.83,11.138,96.098-18.466c17.268-29.604,16.904-73.814-10.491-105.412
						c-29.063-33.522-82.046-85.864-129.06-128.38c-39.941-36.12-75.382-64.678-80.847-72.209
						c-2.792-3.847-14.666-2.375-14.666-2.375L94.16,207.744z"/>
					<path style="opacity:0.4;fill:#FFFFF3;" d="M94.53,207.369c0,0,8.245,31.13,19.054,70.474
						c9.765,35.545,21.094,77.243,31.827,104.189c23.146,58.108,52.234,127.112,114.426,141.584
						c42.629,28.439,77.452,15.346,94.83-12.852c17.378-28.197,17.448-71.614-9.836-103.475
						c-28.709-33.526-80.89-86.395-127.246-129.416c-38.764-35.976-73.275-64.574-79.196-72.732c-3.025-4.168-14.3-3.146-14.3-3.146
						L94.53,207.369z"/>
					<path style="opacity:0.4231;fill:#FFFFF3;" d="M94.901,206.994c0,0,8.259,30.01,19.118,68.278
						c9.699,34.18,20.931,74.393,31.702,101.069c23.412,57.982,52.605,126.566,111.087,142.152
						c41.461,30.627,76.074,19.553,93.563-7.237s17.989-69.412-9.182-101.539c-28.356-33.528-79.742-86.916-125.432-130.453
						c-37.594-35.823-71.168-64.471-77.544-73.256c-3.257-4.488-13.935-3.915-13.935-3.915L94.901,206.994z"/>
					<path style="opacity:0.4462;fill:#FFFFF4;" d="M95.271,206.618c0,0,8.269,28.892,19.181,66.082
						c9.629,32.815,20.769,71.542,31.576,97.948c23.68,57.856,52.977,126.021,107.749,142.719
						c40.293,32.814,74.696,23.761,92.296-1.622c17.599-25.383,18.529-67.208-8.527-99.602
						c-28.005-33.529-78.603-87.427-123.617-131.489c-36.432-35.662-69.061-64.367-75.892-73.78
						c-3.49-4.809-13.569-4.686-13.569-4.686L95.271,206.618z"/>
					<path style="opacity:0.4692;fill:#FFFFF5;" d="M95.641,206.243c0,0,8.275,27.774,19.245,63.886
						c9.554,31.452,20.608,68.691,31.451,94.827c23.951,57.729,53.348,125.475,104.41,143.287
						c39.125,35.002,73.319,27.969,91.028,3.992s19.068-65.004-7.873-97.666c-27.656-33.529-77.474-87.927-121.803-132.526
						c-35.279-35.493-66.954-64.263-74.24-74.303c-3.723-5.13-13.204-5.456-13.204-5.456L95.641,206.243z"/>
					<path style="opacity:0.4923;fill:#FFFFF6;" d="M96.012,205.868c0,0,8.276,26.657,19.308,61.691
						c9.476,30.089,20.448,65.84,31.326,91.706c24.223,57.6,53.719,124.929,101.072,143.854
						c37.957,37.189,71.941,32.176,89.761,9.607c17.82-22.569,19.604-62.798-7.218-95.729
						c-27.309-33.528-76.356-88.418-119.989-133.563c-34.133-35.316-64.846-64.159-72.589-74.827
						c-3.955-5.45-12.838-6.226-12.838-6.226L96.012,205.868z"/>
					<path style="opacity:0.5154;fill:#FFFFF7;" d="M96.382,205.493c0,0,8.271,25.542,19.372,59.495
						c9.392,28.728,20.289,62.987,31.2,88.585c24.498,57.471,54.09,124.384,97.734,144.422
						c36.79,39.377,70.563,36.384,88.493,15.221c17.93-21.162,20.139-60.591-6.564-93.792
						c-26.963-33.525-75.251-88.898-118.175-134.599c-32.997-35.132-62.739-64.055-70.937-75.351
						c-4.188-5.771-12.473-6.996-12.473-6.996L96.382,205.493z"/>
					<path style="opacity:0.5385;fill:#FFFFF8;" d="M96.752,205.118c0,0,8.262,24.429,19.435,57.299
						c9.304,27.369,20.131,60.135,31.075,85.464c24.775,57.341,54.461,123.838,94.395,144.99
						c35.622,41.565,69.185,40.591,87.226,20.836c18.041-19.755,20.672-58.382-5.909-91.856
						c-26.619-33.521-74.159-89.367-116.361-135.636c-31.869-34.94-60.632-63.952-69.285-75.874
						c-4.421-6.091-12.107-7.766-12.107-7.766L96.752,205.118z"/>
					<path style="opacity:0.5615;fill:#FFFFF9;" d="M97.123,204.742c0,0,8.245,23.318,19.499,55.103
						c9.21,26.011,19.973,57.282,30.949,82.344c25.054,57.209,54.833,123.292,91.057,145.557
						c34.454,43.752,67.807,44.799,85.958,26.451c18.151-18.348,21.203-56.172-5.255-89.919
						c-26.277-33.516-73.081-89.826-114.547-136.672c-30.752-34.742-58.525-63.848-67.633-76.398
						c-4.653-6.412-11.742-8.536-11.742-8.536L97.123,204.742z"/>
					<path style="opacity:0.5846;fill:#FFFFFA;" d="M97.493,204.367c0,0,8.22,22.211,19.562,52.907
						c9.11,24.656,19.817,54.428,30.824,79.223c25.336,57.076,59.349,117.859,87.718,146.125
						c40.188,40.042,66.429,49.007,84.691,32.065c18.262-16.941,21.733-53.961-4.6-87.983
						c-25.936-33.509-72.019-90.274-112.733-137.709c-29.644-34.537-56.417-63.744-65.981-76.922
						c-4.886-6.733-11.376-9.306-11.376-9.306L97.493,204.367z"/>
					<path style="opacity:0.6077;fill:#FFFFFB;" d="M97.863,203.992c0,0,8.187,21.107,19.626,50.711
						c9.005,23.304,19.705,51.555,30.698,76.102c25.721,56.897,59.242,118.45,84.38,146.692
						c38.469,43.219,65.051,53.214,83.423,37.68c18.372-15.534,22.26-51.748-3.946-86.046
						c-25.598-33.502-70.974-90.712-110.918-138.745c-28.547-34.328-54.31-63.64-64.33-77.446
						c-5.119-7.053-11.011-10.076-11.011-10.076L97.863,203.992z"/>
					<path style="opacity:0.6308;fill:#FFFFFC;" d="M98.234,203.617c0,0,8.144,20.008,19.689,48.515
						c8.892,21.956,19.541,48.704,30.573,72.981c25.986,56.771,58.963,119.012,81.041,147.26
						c36.377,46.543,63.674,57.422,82.156,43.294c18.483-14.127,22.724-49.488-3.291-84.109
						c-25.32-33.449-69.948-91.139-109.104-139.782c-27.46-34.113-52.203-63.536-62.678-77.969
						c-5.352-7.374-10.645-10.846-10.645-10.846L98.234,203.617z"/>
					<path style="opacity:0.6538;fill:#FFFFFD;" d="M98.604,203.242c0,0,8.09,18.916,19.753,46.319
						c8.772,20.611,19.378,45.854,30.447,69.861c26.252,56.644,58.507,119.495,77.703,147.827
						c33.858,49.971,62.296,61.629,80.889,48.909c18.593-12.72,23.265-47.288-2.637-82.173
						c-24.967-33.454-68.941-91.556-107.29-140.818c-26.385-33.893-50.096-63.432-61.026-78.493
						c-5.584-7.694-10.28-11.617-10.28-11.617L98.604,203.242z"/>
					<path style="opacity:0.6769;fill:#FFFFFE;" d="M98.974,202.866c0,0,8.023,17.831,19.816,44.123
						c8.645,19.272,19.214,43.003,30.322,66.74c26.518,56.517,57.87,119.848,74.364,148.395
						c30.88,53.444,60.918,65.837,79.621,54.524c18.703-11.313,23.806-45.086-1.982-80.236
						c-24.613-33.458-67.956-91.963-105.476-141.855c-25.321-33.671-47.989-63.329-59.374-79.017
						c-5.817-8.015-9.914-12.387-9.914-12.387L98.974,202.866z"/>
					<path style="opacity:0.7;fill:#FFFFFF;" d="M99.345,202.491c0,0,23.292,49.155,50.076,105.546S206.48,428.056,220.447,457
						c27.446,56.878,59.54,70.045,78.354,60.138c18.814-9.906,24.347-42.886-1.328-78.3c-24.26-33.463-66.994-92.36-103.662-142.892
						c-36.668-50.532-67.271-92.697-67.271-92.697L99.345,202.491z"/>
				</g>
				<g>
					<path style="fill:#FFFFFF;" d="M95.695,208.477c0,4.254,1.295,8.207,3.508,11.486c3.691,5.465,9.942,9.057,17.033,9.057
						c11.344,0,20.542-9.198,20.542-20.542c0-11.344-9.198-20.542-20.542-20.542C104.891,187.936,95.695,197.134,95.695,208.477z"/>
					<g style="opacity:0.2;">
						<path style="fill:#FFFFFF;" d="M116.236,187.936c11.344,0,20.542,9.198,20.542,20.541c0,11.344-9.199,20.542-20.542,20.542
							c-7.09,0-13.342-3.591-17.033-9.057c-2.214-3.278-3.508-7.232-3.508-11.485C95.695,197.134,104.891,187.936,116.236,187.936
							 M116.236,184.936c-12.981,0-23.541,10.561-23.541,23.541c0,4.716,1.391,9.269,4.022,13.165
							c4.389,6.498,11.686,10.377,19.519,10.377c12.982,0,23.542-10.561,23.542-23.542
							C139.779,195.497,129.218,184.936,116.236,184.936L116.236,184.936z"/>
					</g>
					<g style="opacity:0.1;">
						<path style="fill:#FFFFFF;" d="M116.236,187.936c11.344,0,20.542,9.198,20.542,20.541c0,11.344-9.199,20.542-20.542,20.542
							c-7.09,0-13.342-3.591-17.033-9.057c-2.214-3.278-3.508-7.232-3.508-11.485C95.695,197.134,104.891,187.936,116.236,187.936
							 M116.236,180.936c-15.187,0-27.541,12.355-27.541,27.541c0,5.517,1.628,10.844,4.707,15.403
							c5.134,7.601,13.67,12.139,22.834,12.139c15.187,0,27.542-12.355,27.542-27.542
							C143.779,193.291,131.423,180.936,116.236,180.936L116.236,180.936z"/>
					</g>
				</g>
				<rect x="98.631" y="217.862" style="fill:#FFFFFF;" width="26.808" height="9.906"/>
				<g>
					<path style="fill:#FFFFFF;" d="M98.631,227.767l8.428,11.459c1.629,2.215,5.213,4.028,7.963,4.028h9.015
						c2.75,0,4.491-2.192,3.869-4.87l-2.466-10.616"/>
				</g>
				<g>
					<rect x="126.515" y="193.733" style="fill:#FFFFFF;" width="10.491" height="24.129"/>
					<g>
						<path style="fill:#FFFFFF;" d="M137.006,193.733l10.341,10.448c1.935,1.954,3.517,5.804,3.517,8.554v7.799
							c0,2.75-1.97,3.913-4.377,2.584l-9.48-5.234"/>
					</g>
				</g>
				<rect x="97.798" y="218.599" style="fill:#231F20;" width="26.808" height="9.906"/>
				<rect x="127.202" y="192.876" style="fill:#231F20;" width="10.491" height="24.129"/>
				<g>
					<path style="fill:#FFFFFF;" d="M98.576,194.175l-8.967,10.24c-1.812,2.069-3.294,6.012-3.294,8.762v5.202
						c0,2.75,1.909,3.809,4.242,2.353l8.019-5.003"/>
				</g>
				<g>
					<path style="fill:#201D23;" d="M97.136,193.876l-8.967,10.24c-1.812,2.069-3.294,6.012-3.294,8.762v5.202
						c0,2.75,1.909,3.809,4.242,2.353l8.019-5.003"/>
				</g>
				<path style="fill:#0F0D11;" d="M91.445,204.01c0,4.254,1.295,8.207,3.508,11.485c3.691,5.465,9.942,9.057,17.033,9.057
					c11.344,0,20.542-9.198,20.542-20.542c0-11.344-9.198-20.542-20.542-20.542C100.641,183.468,91.445,192.666,91.445,204.01z"/>
				<path style="fill:#2C2933;" d="M89.716,202.202c0,4.254,1.295,8.207,3.508,11.486c3.691,5.465,9.942,9.057,17.033,9.057
					c11.344,0,20.542-9.198,20.542-20.542c0-11.344-9.199-20.542-20.542-20.542C98.912,181.66,89.716,190.858,89.716,202.202z"/>
				<path style="fill:#0F0D11;" d="M94.97,201.443c0,3.082,0.938,5.946,2.542,8.321c2.674,3.959,7.203,6.562,12.341,6.562
					c8.219,0,14.883-6.664,14.883-14.883c0-8.219-6.664-14.882-14.883-14.882C101.633,186.561,94.97,193.225,94.97,201.443z"/>
				<g>
					<path style="fill:#35292D;" d="M97.798,228.504l8.428,11.459c1.629,2.215,5.212,4.028,7.962,4.028h9.015
						c2.75,0,4.491-2.192,3.869-4.87l-2.466-10.616"/>
				</g>
				<g>
					<path style="fill:#493131;" d="M137.694,192.876l10.341,10.448c1.935,1.955,3.517,5.804,3.517,8.554v7.799
						c0,2.75-1.97,3.913-4.377,2.584l-9.48-5.233"/>
				</g>
				<rect x="93.645" y="115.13" style="fill:#363233;" width="2.304" height="12.825"/>
				<path style="fill:#363233;" d="M94.798,130.713c-2.23,0-4.037-1.414-4.037-3.161h8.073
					C98.834,129.299,97.027,130.713,94.798,130.713z"/>
				<path style="fill:#363233;" d="M112.159,146.78v-16.441c0-1.314-1.068-2.383-2.382-2.383H78.207
					c-1.313,0-1.083,1.069-1.083,2.383v10.929h-2.598v-10.929c0-2.747,0.936-4.981,3.682-4.981h31.569
					c2.746,0,4.98,2.234,4.98,4.981v16.441H112.159z"/>
			</g>
		</g>
		<rect x="74.526" y="137.779" style="fill:#363233;" width="2.598" height="49.003"/>
		<path style="fill:#201D23;" d="M112.459,175.462l0.014-0.011l-18.805-17.136l-24.807,21.429l13.826,20.026l0.01-0.007
			c3.355,5.891,9.68,9.872,16.944,9.872c10.77,0,19.5-8.73,19.5-19.5C119.142,184.277,116.546,179.037,112.459,175.462z"/>
		<path style="opacity:0.3;fill:#35292D;" d="M108.66,207.414c5.081-2.658,8.848-7.48,10.061-13.251l-23.923-22.347l-7.221,8.736
			L108.66,207.414z"/>
		
			<ellipse transform="matrix(0.9815 -0.1914 0.1914 0.9815 -31.1044 18.9482)" style="fill:#3F3A49;" cx="82.554" cy="170.52" rx="16.508" ry="16.508"/>
	</g>
	<path style="fill:#201D23;" d="M90.585,170.523c0,4.435-3.594,8.029-8.029,8.029c-4.435-0.001-8.03-3.596-8.03-8.031
		c0-4.435,3.594-8.029,8.029-8.029C86.99,162.492,90.585,166.088,90.585,170.523z"/>
	<rect x="112.159" y="146.78" style="fill:#363233;" width="2.598" height="40.002"/>
	<path style="opacity:0.3;fill:#191617;" d="M116.032,189.127c0.002,2.494-1.368,4.517-3.06,4.518
		c-1.692,0.001-3.065-2.021-3.067-4.515c-0.002-2.494,1.368-4.517,3.06-4.518C114.656,184.612,116.03,186.633,116.032,189.127z"/>
	<path style="fill:#2D2A2B;" d="M112.509,183.708c-1.245,0.001-2.253,1.489-2.251,3.324c0.002,1.835,1.012,3.323,2.257,3.322h3.061
		v-6.647H112.509z"/>
	<path style="fill:#191617;" d="M117.827,187.03c0.002,1.835-1.006,3.324-2.251,3.324c-1.245,0.001-2.256-1.487-2.257-3.322
		c-0.002-1.835,1.006-3.324,2.251-3.324C116.815,183.707,117.825,185.195,117.827,187.03z"/>
</g>
<path style="fill:#201D23;" d="M470.514,175.096h0.018l-4.067-25.102l-16.412,0.652v0.259l-0.095-0.259l-16.412-0.652l-4.067,25.102
	h0.018c-0.978,5.339,0.253,11.051,3.906,15.628c4.136,5.184,11.962,7.827,16.65,7.827c4.688,0,12.419-2.643,16.555-7.827
	C470.26,186.147,471.492,180.436,470.514,175.096z"/>
<g>
	
		<ellipse transform="matrix(0.9949 -0.1004 0.1004 0.9949 -12.9285 45.9443)" style="fill:#34303D;" cx="450.053" cy="151.434" rx="16.508" ry="16.508"/>
</g>
<path style="fill:#201D23;" d="M457.166,151.435c0,3.927-3.184,7.111-7.112,7.111c-3.928-0.001-7.112-3.185-7.112-7.112
	c0-3.927,3.184-7.111,7.112-7.11C453.981,144.324,457.166,147.508,457.166,151.435z"/>
<rect x="-1" y="804.747" style="opacity:0.7;fill:#783624;" width="901" height="17.505"/>
<rect x="-1" y="800.977" style="fill:#783624;" width="901" height="16.505"/>
<g>
	<g>
		<g>
			<g>
				<g>
					<path style="opacity:0.1;fill:#FFFFE6;" d="M814.415,212.247c0,0-7.845,45.699-18.229,99.022s-23.305,114.268-33.458,144.76
						c-19.871,59.679-47.409,134.206-157.826,134.206c-57.813,0-95.364-39.353-111.307-85.841
						c-15.943-46.488-10.277-100.111,18.344-128.651c33.44-33.345,96.315-78.811,150.829-115.941
						c54.514-37.13,100.669-65.924,100.669-65.924L814.415,212.247z"/>
					<path style="opacity:0.1231;fill:#FFFFE7;" d="M664.597,261.19c53.275-37.097,98.562-65.82,99.017-66.448
						c0.233-0.321,18.687,6.096,18.687,6.096l31.743,11.033c0,0-7.849,44.586-18.292,96.826
						c-10.311,51.961-23.142,111.417-33.333,141.639c-20.137,59.553-47.807,132.157-154.487,134.773
						c-56.67,1.39-93.986-35.146-110.04-80.227c-16.053-45.081-10.819-97.91,17.69-126.715
						C548.669,344.819,610.693,298.726,664.597,261.19z"/>
					<path style="opacity:0.1462;fill:#FFFFE8;" d="M666.426,262.581c52.04-37.055,96.454-65.716,97.365-66.971
						c0.465-0.641,18.321,5.326,18.321,5.326l31.561,10.561c0,0-7.852,43.473-18.356,94.63
						c-10.239,50.601-22.978,108.567-33.207,138.518c-20.403,59.426-48.257,130.176-151.149,135.341
						c-55.579,2.79-92.608-30.938-108.772-74.612c-16.164-43.674-11.36-95.709,17.035-124.778
						C551.959,347.241,613.132,300.529,666.426,262.581z"/>
					<path style="opacity:0.1692;fill:#FFFFE9;" d="M668.255,263.971c50.808-37.004,94.347-65.612,95.713-67.495
						c0.698-0.962,17.956,4.556,17.956,4.556l31.379,10.09c0,0-7.963,42.337-18.419,92.434
						c-10.272,49.218-22.814,105.716-33.082,135.397c-20.669,59.3-48.76,128.272-147.81,135.908
						c-54.542,4.205-91.231-26.73-107.505-68.998c-16.274-42.267-11.901-93.508,16.381-122.841
						C555.249,349.663,615.574,302.339,668.255,263.971z"/>
					<path style="opacity:0.1923;fill:#FFFFEA;" d="M670.084,265.361c49.581-36.943,92.24-65.509,94.062-68.019
						c0.931-1.282,17.59,3.785,17.59,3.785l31.197,9.618c0,0-8,41.217-18.483,90.238c-10.232,47.85-22.651,102.865-32.956,132.276
						c-20.935,59.173-49.316,126.459-144.472,136.476c-53.56,5.638-89.853-22.523-106.237-63.383
						c-16.385-40.86-12.506-91.368,15.726-120.905C558.467,352.016,618.017,304.156,670.084,265.361z"/>
					<path style="opacity:0.2154;fill:#FFFFEB;" d="M671.913,266.751c48.357-36.873,90.133-65.405,92.41-68.543
						c1.163-1.603,17.225,3.015,17.225,3.015l31.015,9.146c0,0-8.035,40.096-18.546,88.042
						c-10.19,46.482-22.487,100.015-32.831,129.156c-21.201,59.047-49.921,124.75-141.133,137.043
						c-52.635,7.094-88.475-18.315-104.97-57.768c-16.495-39.453-13.06-89.179,15.072-118.968
						C561.743,354.426,620.463,305.982,671.913,266.751z"/>
					<path style="opacity:0.2385;fill:#FFFFEC;" d="M673.742,268.142c47.138-36.793,88.025-65.301,90.758-69.066
						c1.396-1.924,16.859,2.245,16.859,2.245l30.833,8.675c0,0-8.069,38.975-18.61,85.846
						c-10.146,45.114-22.263,97.186-32.706,126.035c-21.344,58.965-50.573,123.157-137.795,137.611
						c-51.767,8.579-87.097-14.108-103.702-52.154c-16.606-38.046-13.614-86.988,14.417-117.031
						C565.02,356.837,622.912,307.815,673.742,268.142z"/>
					<path style="opacity:0.2615;fill:#FFFFED;" d="M675.571,269.532c45.925-36.704,85.918-65.197,89.106-69.59
						c1.629-2.244,16.494,1.475,16.494,1.475l30.651,8.203c0,0-8.101,37.853-18.673,83.65
						c-10.099,43.746-22.093,94.338-32.58,122.914c-21.595,58.844-51.266,121.693-134.456,138.179
						c-50.955,10.097-85.719-9.9-102.435-46.539c-16.716-36.639-14.165-84.796,13.763-115.095
						C568.299,359.251,625.365,309.657,675.571,269.532z"/>
					<path style="opacity:0.2846;fill:#FFFFEE;" d="M677.4,270.922c44.716-36.606,83.811-65.094,87.455-70.114
						c1.861-2.565,16.128,0.705,16.128,0.705l30.47,7.731c0,0-8.131,36.732-18.737,81.454
						c-10.05,42.378-21.924,91.49-32.455,119.793c-21.849,58.723-51.994,120.372-131.118,138.746
						c-50.196,11.657-84.341-5.692-101.168-40.925c-16.826-35.232-14.716-82.603,13.108-113.158
						C571.58,361.665,627.822,311.508,677.4,270.922z"/>
					<path style="opacity:0.3077;fill:#FFFFEF;" d="M679.229,272.313c43.513-36.498,81.704-64.99,85.803-70.637
						c2.094-2.885,15.763-0.065,15.763-0.065l30.288,7.26c0,0-8.159,35.611-18.8,79.258c-9.999,41.011-21.756,88.641-32.329,116.672
						c-22.104,58.602-52.749,119.203-127.78,139.314c-49.488,13.265-82.964-1.485-99.9-35.31
						c-16.937-33.825-15.265-80.408,12.454-111.222C574.862,364.082,630.283,313.367,679.229,272.313z"/>
					<path style="opacity:0.3308;fill:#FFFFF0;" d="M681.057,273.703c42.316-36.381,79.597-64.886,84.151-71.161
						c2.327-3.206,15.397-0.835,15.397-0.835l30.106,6.788c0,0-8.184,34.491-18.864,77.062
						c-9.945,39.644-21.589,85.792-32.204,113.552c-22.362,58.479-53.522,118.197-124.441,139.881
						c-48.826,14.929-81.586,2.723-98.633-29.695c-17.047-32.418-15.813-78.211,11.799-109.285
						C578.146,366.5,632.75,315.235,681.057,273.703z"/>
					<path style="opacity:0.3538;fill:#FFFFF1;" d="M682.886,275.093c41.125-36.255,77.489-64.782,82.499-71.685
						c2.559-3.527,15.032-1.605,15.032-1.605l29.924,6.316c0,0-8.207,33.37-18.927,74.866
						c-9.888,38.277-21.423,82.943-32.078,110.431c-22.621,58.356-54.3,117.361-121.103,140.449
						c-48.202,16.659-80.208,6.93-97.365-24.081c-17.158-31.011-16.359-76.013,11.145-107.349
						C581.431,368.92,635.222,317.112,682.886,275.093z"/>
					<path style="opacity:0.3769;fill:#FFFFF2;" d="M684.715,276.483c39.941-36.12,75.382-64.678,80.847-72.209
						c2.792-3.847,14.666-2.375,14.666-2.375l29.742,5.845c0,0-8.228,32.25-18.991,72.67c-9.828,36.911-21.258,80.094-31.953,107.31
						c-22.883,58.232-55.073,116.702-117.764,141.017c-47.607,18.464-78.83,11.138-96.098-18.466
						c-17.268-29.604-16.904-73.814,10.491-105.412C584.718,371.341,637.701,318.999,684.715,276.483z"/>
					<path style="opacity:0.4;fill:#FFFFF3;" d="M686.544,277.874c38.764-35.976,73.275-64.574,79.196-72.732
						c3.025-4.168,14.301-3.146,14.301-3.146l29.56,5.373c0,0-8.245,31.13-19.054,70.474
						c-9.766,35.545-21.094,77.243-31.827,104.189c-23.146,58.108-52.234,127.112-114.426,141.584
						c-42.629,28.439-77.452,15.346-94.83-12.852c-17.378-28.197-17.448-71.614,9.836-103.475
						C588.007,373.764,640.188,320.895,686.544,277.874z"/>
					<path style="opacity:0.4231;fill:#FFFFF3;" d="M688.373,279.264c37.595-35.823,71.168-64.471,77.544-73.256
						c3.257-4.488,13.935-3.915,13.935-3.915l29.378,4.901c0,0-8.259,30.01-19.118,68.278
						c-9.699,34.18-20.931,74.393-31.702,101.069c-23.412,57.982-52.605,126.566-111.087,142.152
						c-41.461,30.627-76.074,19.553-93.563-7.237c-17.489-26.79-17.989-69.412,9.182-101.539
						C591.297,376.188,642.683,322.801,688.373,279.264z"/>
					<path style="opacity:0.4462;fill:#FFFFF4;" d="M690.202,280.654c36.432-35.662,69.061-64.367,75.892-73.78
						c3.49-4.809,13.57-4.686,13.57-4.686l29.196,4.43c0,0-8.269,28.892-19.181,66.082c-9.629,32.815-20.769,71.542-31.576,97.948
						c-23.68,57.856-52.977,126.021-107.749,142.719c-40.293,32.814-74.696,23.761-92.296-1.622
						c-17.599-25.383-18.529-67.208,8.527-99.602C594.59,378.614,645.187,324.717,690.202,280.654z"/>
					<path style="opacity:0.4692;fill:#FFFFF5;" d="M692.031,282.044c35.279-35.493,66.953-64.263,74.24-74.303
						c3.723-5.13,13.204-5.456,13.204-5.456l29.014,3.958c0,0-8.275,27.774-19.245,63.886
						c-9.554,31.452-20.608,68.691-31.451,94.827c-23.951,57.729-53.348,125.475-104.411,143.287
						c-39.125,35.002-73.318,27.969-91.028,3.992s-19.068-65.004,7.873-97.666C597.884,381.041,647.701,326.643,692.031,282.044z"/>
					<path style="opacity:0.4923;fill:#FFFFF6;" d="M693.86,283.435c34.133-35.316,64.846-64.159,72.589-74.827
						c3.956-5.45,12.839-6.226,12.839-6.226l28.832,3.486c0,0-8.276,26.657-19.308,61.691c-9.476,30.089-20.448,65.84-31.326,91.706
						c-24.223,57.6-53.719,124.929-101.072,143.854c-37.958,37.189-71.941,32.176-89.761,9.607
						c-17.82-22.569-19.604-62.798,7.218-95.729C601.179,383.469,650.227,328.58,693.86,283.435z"/>
					<path style="opacity:0.5154;fill:#FFFFF7;" d="M695.688,284.825c32.997-35.132,62.739-64.055,70.937-75.351
						c4.188-5.771,12.473-6.996,12.473-6.996l28.65,3.015c0,0-8.271,25.542-19.372,59.495c-9.392,28.728-20.289,62.987-31.2,88.585
						c-24.498,57.471-54.09,124.384-97.733,144.422c-36.79,39.377-70.563,36.384-88.493,15.221
						c-17.93-21.162-20.139-60.591,6.564-93.792C604.477,385.899,652.764,330.526,695.688,284.825z"/>
					<path style="opacity:0.5385;fill:#FFFFF8;" d="M697.517,286.215c31.869-34.94,60.632-63.952,69.285-75.874
						c4.421-6.091,12.107-7.766,12.107-7.766l28.468,2.543c0,0-8.262,24.429-19.435,57.299
						c-9.304,27.369-20.131,60.135-31.075,85.464c-24.775,57.341-54.461,123.838-94.395,144.99
						c-35.622,41.565-69.185,40.591-87.226,20.836c-18.041-19.755-20.672-58.382,5.909-91.856
						C607.776,388.33,655.315,332.484,697.517,286.215z"/>
					<path style="opacity:0.5615;fill:#FFFFF9;" d="M699.346,287.606c30.751-34.742,58.525-63.848,67.633-76.398
						c4.654-6.412,11.742-8.536,11.742-8.536l28.286,2.071c0,0-8.245,23.318-19.499,55.103
						c-9.21,26.011-19.973,57.282-30.949,82.344c-25.054,57.209-54.832,123.292-91.057,145.557
						c-34.454,43.752-67.807,44.799-85.958,26.451c-18.151-18.348-21.203-56.172,5.255-89.919
						C611.076,390.762,657.881,334.452,699.346,287.606z"/>
					<path style="opacity:0.5846;fill:#FFFFFA;" d="M701.175,288.996c29.644-34.537,56.418-63.744,65.981-76.922
						c4.886-6.733,11.376-9.306,11.376-9.306l28.104,1.6c0,0-8.22,22.211-19.562,52.907c-9.11,24.656-19.817,54.428-30.824,79.223
						c-25.336,57.076-59.349,117.859-87.718,146.125c-40.188,40.042-66.429,49.007-84.691,32.065
						c-18.262-16.941-21.733-53.961,4.6-87.983C614.379,393.195,660.462,336.431,701.175,288.996z"/>
					<path style="opacity:0.6077;fill:#FFFFFB;" d="M703.004,290.386c28.547-34.328,54.31-63.64,64.33-77.446
						c5.119-7.053,11.011-10.076,11.011-10.076l27.923,1.128c0,0-8.187,21.107-19.626,50.711
						c-9.005,23.304-19.705,51.555-30.698,76.102c-25.721,56.897-59.242,118.45-84.38,146.692
						c-38.469,43.219-65.051,53.214-83.423,37.68c-18.372-15.534-22.26-51.748,3.946-86.046
						C617.683,395.629,663.06,338.42,703.004,290.386z"/>
					<path style="opacity:0.6308;fill:#FFFFFC;" d="M704.833,291.776c27.46-34.113,52.203-63.536,62.678-77.969
						c5.352-7.374,10.645-10.846,10.645-10.846l27.741,0.656c0,0-8.144,20.008-19.689,48.515
						c-8.892,21.956-19.542,48.704-30.573,72.981c-25.986,56.771-58.963,119.012-81.041,147.26
						c-36.377,46.543-63.673,57.422-82.156,43.294c-18.482-14.127-22.724-49.488,3.291-84.109
						C621.048,398.109,665.677,340.419,704.833,291.776z"/>
					<path style="opacity:0.6538;fill:#FFFFFD;" d="M706.662,293.167c26.385-33.893,50.096-63.432,61.026-78.493
						c5.584-7.694,10.28-11.617,10.28-11.617l27.559,0.185c0,0-8.09,18.916-19.753,46.319
						c-8.772,20.611-19.378,45.854-30.447,69.861c-26.252,56.644-58.507,119.495-77.703,147.827
						c-33.858,49.971-62.296,61.629-80.889,48.909c-18.593-12.72-23.265-47.288,2.637-82.173
						C624.338,400.531,668.313,342.429,706.662,293.167z"/>
					<path style="opacity:0.6769;fill:#FFFFFE;" d="M708.491,294.557c25.321-33.671,47.989-63.329,59.374-79.017
						c5.817-8.015,9.914-12.387,9.914-12.387l27.377-0.287c0,0-8.023,17.831-19.816,44.123
						c-8.645,19.272-19.214,43.003-30.322,66.74c-26.518,56.517-57.87,119.848-74.364,148.395
						c-30.88,53.444-60.918,65.837-79.621,54.524c-18.703-11.313-23.806-45.086,1.982-80.236
						C627.628,402.954,670.971,344.449,708.491,294.557z"/>
					<path style="opacity:0.7;fill:#FFFFFF;" d="M804.786,202.491c0,0-23.292,49.155-50.076,105.546
						C727.926,364.428,697.65,428.056,683.684,457c-27.446,56.878-59.54,70.045-78.354,60.138
						c-18.814-9.906-24.347-42.886,1.328-78.3c24.26-33.463,66.994-92.36,103.662-142.892
						c36.668-50.532,67.271-92.697,67.271-92.697L804.786,202.491z"/>
				</g>
				<g>
					<path style="fill:#FFFFFF;" d="M808.435,208.477c0,4.254-1.294,8.207-3.508,11.486c-3.691,5.465-9.943,9.057-17.033,9.057
						c-11.344,0-20.542-9.198-20.542-20.542c0-11.344,9.198-20.542,20.542-20.542C799.239,187.936,808.435,197.134,808.435,208.477z
						"/>
					<g style="opacity:0.2;">
						<path style="fill:#FFFFFF;" d="M787.894,187.936c11.345,0,20.542,9.198,20.542,20.541c0,4.254-1.294,8.208-3.508,11.485
							c-3.691,5.465-9.942,9.057-17.033,9.057c-11.344,0-20.542-9.198-20.542-20.542
							C767.352,197.134,776.55,187.936,787.894,187.936 M787.894,184.936c-12.981,0-23.542,10.561-23.542,23.541
							c0,12.981,10.561,23.542,23.542,23.542c7.833,0,15.13-3.879,19.519-10.377c2.632-3.896,4.022-8.448,4.022-13.165
							C811.435,195.497,800.875,184.936,787.894,184.936L787.894,184.936z"/>
					</g>
					<g style="opacity:0.1;">
						<path style="fill:#FFFFFF;" d="M787.894,187.936c11.345,0,20.542,9.198,20.542,20.541c0,4.254-1.294,8.208-3.508,11.485
							c-3.691,5.465-9.942,9.057-17.033,9.057c-11.344,0-20.542-9.198-20.542-20.542
							C767.352,197.134,776.55,187.936,787.894,187.936 M787.894,180.936c-15.187,0-27.542,12.355-27.542,27.541
							c0,15.187,12.355,27.542,27.542,27.542c9.164,0,17.7-4.538,22.834-12.139c3.08-4.559,4.707-9.886,4.707-15.403
							C815.435,193.291,803.081,180.936,787.894,180.936L787.894,180.936z"/>
					</g>
				</g>
				<rect x="778.692" y="217.862" style="fill:#FFFFFF;" width="26.808" height="9.906"/>
				<g>
					<path style="fill:#FFFFFF;" d="M805.499,227.767l-8.428,11.459c-1.629,2.215-5.212,4.028-7.962,4.028h-9.015
						c-2.75,0-4.491-2.192-3.869-4.87l2.466-10.616"/>
				</g>
				<g>
					<rect x="767.125" y="193.733" style="fill:#FFFFFF;" width="10.491" height="24.129"/>
					<g>
						<path style="fill:#FFFFFF;" d="M767.124,193.733l-10.341,10.448c-1.934,1.954-3.517,5.804-3.517,8.554v7.799
							c0,2.75,1.97,3.913,4.377,2.584l9.481-5.234"/>
					</g>
				</g>
				<rect x="779.525" y="218.599" style="fill:#231F20;" width="26.808" height="9.906"/>
				<rect x="766.437" y="192.876" style="fill:#231F20;" width="10.491" height="24.129"/>
				<g>
					<path style="fill:#FFFFFF;" d="M805.555,194.175l8.967,10.24c1.812,2.069,3.294,6.012,3.294,8.762v5.202
						c0,2.75-1.909,3.809-4.242,2.353l-8.019-5.003"/>
				</g>
				<g>
					<path style="fill:#1B191E;" d="M806.995,193.876l8.967,10.24c1.812,2.069,3.294,6.012,3.294,8.762v5.202
						c0,2.75-1.909,3.809-4.242,2.353l-8.019-5.003"/>
				</g>
				<path style="fill:#0F0D11;" d="M812.685,204.01c0,4.254-1.294,8.207-3.508,11.485c-3.691,5.465-9.943,9.057-17.033,9.057
					c-11.344,0-20.542-9.198-20.542-20.542c0-11.344,9.198-20.542,20.542-20.542C803.489,183.468,812.685,192.666,812.685,204.01z"
					/>
				<path style="fill:#2C2933;" d="M814.415,202.202c0,4.254-1.294,8.207-3.508,11.486c-3.691,5.465-9.943,9.057-17.033,9.057
					c-11.344,0-20.542-9.198-20.542-20.542c0-11.344,9.198-20.542,20.542-20.542C805.218,181.66,814.415,190.858,814.415,202.202z"
					/>
				<path style="fill:#0F0D11;" d="M809.16,201.443c0,3.082-0.938,5.946-2.542,8.321c-2.674,3.959-7.203,6.562-12.341,6.562
					c-8.219,0-14.883-6.664-14.883-14.883c0-8.219,6.664-14.882,14.883-14.882C802.497,186.561,809.16,193.225,809.16,201.443z"/>
				<g>
					<path style="fill:#35292D;" d="M806.333,228.504l-8.428,11.459c-1.629,2.215-5.213,4.028-7.963,4.028h-9.015
						c-2.75,0-4.491-2.192-3.869-4.87l2.466-10.616"/>
				</g>
				<g>
					<path style="fill:#493131;" d="M766.437,192.876l-10.341,10.448c-1.934,1.955-3.517,5.804-3.517,8.554v7.799
						c0,2.75,1.97,3.913,4.377,2.584l9.481-5.233"/>
				</g>
				<rect x="808.181" y="115.13" style="fill:#363233;" width="2.304" height="12.825"/>
				<path style="fill:#363233;" d="M809.333,130.713c2.23,0,4.037-1.414,4.037-3.161h-8.073
					C805.297,129.299,807.104,130.713,809.333,130.713z"/>
				<path style="fill:#363233;" d="M791.971,146.78v-16.441c0-1.314,1.068-2.383,2.382-2.383h31.569
					c1.314,0,1.083,1.069,1.083,2.383v10.929h2.598v-10.929c0-2.747-0.936-4.981-3.682-4.981h-31.569
					c-2.746,0-4.98,2.234-4.98,4.981v16.441H791.971z"/>
			</g>
		</g>
		<rect x="827.007" y="137.779" style="fill:#363233;" width="2.598" height="49.003"/>
		<path style="fill:#201D23;" d="M791.672,175.462l-0.014-0.011l18.805-17.136l24.807,21.429l-13.826,20.026l-0.01-0.007
			c-3.355,5.891-9.68,9.872-16.944,9.872c-10.769,0-19.5-8.73-19.5-19.5C784.989,184.277,787.584,179.037,791.672,175.462z"/>
		<path style="opacity:0.3;fill:#35292D;" d="M795.471,207.414c-5.081-2.658-8.848-7.48-10.06-13.251l23.922-22.347l7.221,8.736
			L795.471,207.414z"/>
		<path style="fill:#34303D;" d="M805.068,170.52c0,9.117,7.391,16.508,16.508,16.508c9.117,0,16.508-7.391,16.508-16.508
			c0-9.117-7.391-16.508-16.508-16.508C812.459,154.013,805.068,161.403,805.068,170.52z"/>
	</g>
	<path style="fill:#201D23;" d="M813.545,170.523c0,4.435,3.594,8.029,8.029,8.029c4.435-0.001,8.03-3.596,8.03-8.031
		c0-4.435-3.594-8.029-8.029-8.029C817.141,162.492,813.545,166.088,813.545,170.523z"/>
	<rect x="789.373" y="146.78" style="fill:#363233;" width="2.598" height="40.002"/>
	<path style="opacity:0.3;fill:#191617;" d="M788.099,189.127c-0.002,2.494,1.368,4.517,3.06,4.518
		c1.692,0.001,3.065-2.021,3.067-4.515c0.002-2.494-1.368-4.517-3.06-4.518C789.474,184.612,788.101,186.633,788.099,189.127z"/>
	<path style="fill:#2D2A2B;" d="M791.621,183.708c1.245,0.001,2.253,1.489,2.251,3.324c-0.002,1.835-1.012,3.323-2.257,3.322h-3.061
		v-6.647H791.621z"/>
	<path style="fill:#191617;" d="M786.304,187.03c-0.002,1.835,1.006,3.324,2.251,3.324s2.255-1.487,2.257-3.322
		c0.002-1.835-1.006-3.324-2.251-3.324S786.305,185.195,786.304,187.03z"/>
</g>
<linearGradient id="SVGID_00000052808695583965882850000009720636701117557419_" gradientUnits="userSpaceOnUse" x1="449.5" y1="806.4067" x2="449.5" y2="905.3112">
	<stop  offset="0" style="stop-color:#FFFFFF"/>
	<stop  offset="1" style="stop-color:#231F20"/>
</linearGradient>
<rect x="-1" y="822.253" style="opacity:0.6;fill:url(#SVGID_00000052808695583965882850000009720636701117557419_);" width="901" height="77.747"/>
</svg>
