<svg id="Layer_1" enable-background="new 0 0 512 512" height="512" viewBox="0 0 512 512" width="512" xmlns="http://www.w3.org/2000/svg"><g><g><path d="m37.5 98.684h437v377.596h-437z" fill="#ecf5ff"/><path d="m444.5 98.684h30v377.596h-30z" fill="#dceafc"/><path d="m17.5 83.653h477c5.523 0 10 4.487 10 10.021v10.021c0 5.534-4.477 10.021-10 10.021h-477c-5.523 0-10-4.487-10-10.021v-10.021c0-5.535 4.477-10.021 10-10.021z" fill="#4f6d8f"/><path d="m494.5 83.653h-30c5.523 0 10 4.487 10 10.021v10.021c0 5.534-4.477 10.021-10 10.021h30c5.523 0 10-4.487 10-10.021v-10.021c0-5.535-4.477-10.021-10-10.021z" fill="#455e7e"/><path d="m318.107 52.816c-2.584 0-4.904-1.646-5.69-4.108-7.624-23.897-29.993-41.208-56.417-41.208s-48.793 17.311-56.417 41.207c-.785 2.462-3.106 4.108-5.69 4.108h-75.656c-3.314 0-6 2.686-6 6v79.737c0 3.314 2.686 6 6 6h275.526c3.314 0 6-2.686 6-6v-79.736c0-3.314-2.686-6-6-6z" fill="#f6df7f"/><g fill="#efd06f"><path d="m282.417 48.707c.785 2.462 3.106 4.108 5.69 4.108h30c-2.584 0-4.904-1.646-5.69-4.108-7.624-23.896-29.993-41.207-56.417-41.207-5.184 0-10.209.675-15 1.927 19.63 5.128 35.289 20.072 41.417 39.28z"/><path d="m393.763 52.816h-30c3.314 0 6 2.686 6 6v79.737c0 3.314-2.686 6-6 6h30c3.314 0 6-2.686 6-6v-79.737c0-3.314-2.686-6-6-6z"/></g><path d="m17.5 474.437h477c5.523 0 10 4.487 10 10.021v10.021c0 5.534-4.477 10.021-10 10.021h-477c-5.523 0-10-4.487-10-10.021v-10.021c0-5.534 4.477-10.021 10-10.021z" fill="#bee49d"/><path d="m494.5 474.437h-30c5.523 0 10 4.487 10 10.021v10.021c0 5.534-4.477 10.021-10 10.021h30c5.523 0 10-4.487 10-10.021v-10.021c0-5.534-4.477-10.021-10-10.021z" fill="#a3d8a4"/><path d="m182.642 325.968h146.717v148.469h-146.717z" fill="#4f6d8f"/><path d="m299.358 325.968h30v148.469h-30z" fill="#455e7e"/><g><path d="m248.5 474.438v-148.47c0-4.143 3.358-7.5 7.5-7.5s7.5 3.357 7.5 7.5v148.47z" fill="#455e7e"/></g><path d="m337.358 295.968h-162.716c-3.866 0-7 3.134-7 7v16c0 3.866 3.134 7 7 7h162.717c3.866 0 7-3.134 7-7v-16c-.001-3.866-3.135-7-7.001-7z" fill="#db8894"/><path d="m337.358 295.968h-30c3.866 0 7 3.134 7 7v16c0 3.866-3.134 7-7 7h30c3.866 0 7-3.134 7-7v-16c0-3.866-3.134-7-7-7z" fill="#d4717f"/><path d="m260.53 52.106 7.181 14.551c.736 1.491 2.158 2.524 3.803 2.763l16.058 2.333c4.143.602 5.798 5.694 2.8 8.616l-11.62 11.327c-1.191 1.161-1.734 2.833-1.453 4.471l2.743 15.993c.708 4.127-3.624 7.274-7.329 5.325l-14.363-7.551c-1.472-.774-3.23-.774-4.701 0l-14.363 7.551c-3.706 1.948-8.037-1.199-7.329-5.325l2.743-15.993c.281-1.639-.262-3.311-1.453-4.471l-11.62-11.327c-2.998-2.922-1.344-8.014 2.8-8.616l16.058-2.333c1.645-.239 3.068-1.272 3.803-2.763l7.181-14.551c1.854-3.755 7.208-3.755 9.061 0z" fill="#db8894"/><g fill="#fff"><circle cx="346" cy="98.684" r="19.201"/><circle cx="166" cy="98.684" r="19.201"/></g></g><path d="m494.5 121.22c9.649 0 17.5-7.863 17.5-17.529v-10.021c0-9.66-7.851-17.52-17.5-17.52h-87.237v-17.335c0-7.444-6.056-13.5-13.5-13.5h-74.566c-9.18-27.153-34.429-45.315-63.197-45.315s-54.017 18.161-63.197 45.315h-74.566c-7.444 0-13.5 6.056-13.5 13.5v17.335h-87.237c-9.649 0-17.5 7.86-17.5 17.52v10.021c0 9.666 7.851 17.529 17.5 17.529h12.5v248.982c0 4.143 3.358 7.5 7.5 7.5s7.5-3.357 7.5-7.5v-248.982h59.737v17.333c0 7.444 6.056 13.5 13.5 13.5h150.719c4.142 0 7.5-3.357 7.5-7.5s-3.358-7.5-7.5-7.5h-149.219v-76.738h74.156c5.897 0 11.056-3.749 12.835-9.329 6.867-21.524 26.668-35.986 49.272-35.986s42.405 14.462 49.271 35.986c1.78 5.58 6.938 9.329 12.835 9.329h74.156v76.737h-88.307c-4.142 0-7.5 3.357-7.5 7.5s3.358 7.5 7.5 7.5h89.807c7.444 0 13.5-6.056 13.5-13.5v-17.332h59.738v345.718h-130.142v-133.47c8.15.213 15.012-6.28 15-14.5v-16c0-7.995-6.505-14.5-14.5-14.5h-162.716c-7.995 0-14.5 6.505-14.5 14.5v16c-.016 8.11 6.823 14.822 15 14.5v133.47h-130.142v-61.735c0-4.143-3.358-7.5-7.5-7.5s-7.5 3.357-7.5 7.5v61.735h-12.5c-9.649 0-17.5 7.859-17.5 17.521v10.021c0 9.661 7.851 17.52 17.5 17.52h477c9.649 0 17.5-7.859 17.5-17.521v-10.021c0-9.661-7.851-17.521-17.5-17.521h-12.5v-345.717zm-389.763-15h-87.237c-1.378 0-2.5-1.135-2.5-2.529v-10.021c0-1.39 1.122-2.52 2.5-2.52h87.237zm70.405 197.248h161.717v15h-161.717zm146.716 30v133.47h-58.358v-133.47zm-73.358 0v133.47h-58.358v-133.47zm246 148.47c1.378 0 2.5 1.131 2.5 2.521v10.021c0 1.39-1.122 2.521-2.5 2.521h-477c-1.378 0-2.5-1.131-2.5-2.521v-10.021c0-1.39 1.122-2.521 2.5-2.521zm-87.237-375.718v-15.07h87.237c1.378 0 2.5 1.13 2.5 2.52v10.021c0 1.395-1.122 2.529-2.5 2.529zm-291.253 98.185c3.178 0 6.241.935 8.859 2.703 3.432 2.317 8.095 1.416 10.413-2.017 2.319-3.433 1.416-8.095-2.017-10.413-5.107-3.45-11.074-5.273-17.256-5.273-17.014 0-30.855 13.841-30.855 30.854s13.841 30.855 30.855 30.855c6.848 0 13.005-2.261 17.807-6.538.941-.839 1.834-1.76 2.654-2.737 2.661-3.175 2.244-7.905-.93-10.566-3.175-2.66-7.906-2.244-10.566.93-.354.423-.736.818-1.136 1.174-2.04 1.817-4.674 2.738-7.83 2.738-8.743 0-15.855-7.112-15.855-15.855.002-8.742 7.114-15.855 15.857-15.855zm137.717-14.573c-4.142 0-7.5 3.357-7.5 7.5v46.283c0 4.143 3.358 7.5 7.5 7.5h19.501c4.142 0 7.5-3.357 7.5-7.5s-3.358-7.5-7.5-7.5h-12.001v-8.142h10.564c4.142 0 7.5-3.357 7.5-7.5s-3.358-7.5-7.5-7.5h-10.564v-8.142h12.001c4.142 0 7.5-3.357 7.5-7.5s-3.358-7.5-7.5-7.5h-19.501zm135.749 56.453 2.529-6.64h17.826l2.498 6.618c1.462 3.874 5.789 5.83 9.665 4.368 3.875-1.462 5.832-5.789 4.369-9.665l-17.38-46.054c-1.263-3.331-4.443-5.509-7.996-5.508h-.008c-3.534.005-6.722 2.174-7.98 5.488l-17.54 46.052c-1.474 3.871.468 8.204 4.339 9.679 3.779 1.441 8.192-.419 9.678-4.338zm11.482-30.149 3.211 8.51h-6.453zm-232.462 27.479v-46.71c0-4.143-3.358-7.5-7.5-7.5s-7.5 3.357-7.5 7.5v46.71c0 4.143 3.358 7.5 7.5 7.5s7.5-3.357 7.5-7.5zm-29.197-144.93c0 14.723 11.978 26.7 26.701 26.7s26.701-11.978 26.701-26.7-11.978-26.702-26.701-26.702-26.701 11.979-26.701 26.702zm38.402 0c0 6.451-5.249 11.7-11.701 11.7s-11.701-5.249-11.701-11.7c0-6.452 5.249-11.701 11.701-11.701s11.701 5.248 11.701 11.701zm195 0c0-14.723-11.978-26.701-26.701-26.701s-26.701 11.979-26.701 26.701 11.978 26.7 26.701 26.7 26.701-11.978 26.701-26.7zm-38.402 0c0-6.452 5.249-11.701 11.701-11.701s11.701 5.249 11.701 11.701c0 6.451-5.249 11.7-11.701 11.7s-11.701-5.249-11.701-11.7zm-32.403 151.946c4.07.732 7.977-1.972 8.713-6.049l3.377-18.715 5.65 19.15c1.075 3.621 4.423 6.099 8.193 6.097h.043c3.784-.015 7.134-2.527 8.173-6.173l5.452-19.125 3.601 18.842c.777 4.068 4.707 6.747 8.774 5.958 4.069-.777 6.736-4.706 5.959-8.774l-8.713-45.588c-.774-3.806-4.023-6.616-7.901-6.835-3.861-.205-7.421 2.209-8.62 5.902-.076.235-6.803 23.84-6.875 24.1-.081-.27-7.059-23.941-7.141-24.184-1.237-3.682-4.812-6.067-8.683-5.811-3.875.261-7.094 3.105-7.844 7.005l-8.21 45.486c-.732 4.077 1.976 7.978 6.052 8.714zm-113.132-60.798c-3.134.977-5.268 3.878-5.268 7.16v46.622c0 4.143 3.358 7.5 7.5 7.5s7.5-3.357 7.5-7.5v-22.563l17.854 25.853c2.138 3.09 5.73 4.397 9.152 3.327 3.478-1.086 5.726-4.301 5.725-8.263l-.437-45.136c-.04-4.143-3.382-7.473-7.572-7.428-4.142.04-7.467 3.431-7.427 7.572l.223 23.045-18.847-27.291c-1.865-2.701-5.269-3.875-8.403-2.898zm40.794-66.663c3.893 2.828 8.958 3.194 13.218.956l13.224-6.953 13.224 6.953c4.247 2.233 9.311 1.883 13.218-.956 3.894-2.829 5.807-7.533 4.993-12.275l-2.525-14.726 10.697-10.428c3.446-3.358 4.664-8.288 3.178-12.865-1.487-4.577-5.369-7.852-10.133-8.544l-14.784-2.148-6.612-13.397c-2.13-4.315-6.442-6.996-11.255-6.996s-9.125 2.681-11.255 6.996l-6.612 13.397-14.786 2.148c-4.763.692-8.645 3.967-10.132 8.544-1.486 4.577-.269 9.507 3.177 12.864l10.698 10.429-2.525 14.725c-.815 4.743 1.098 9.447 4.992 12.276zm12.007-46.327c4.088-.595 7.621-3.162 9.449-6.866l4.986-10.103 4.986 10.102c1.828 3.705 5.361 6.272 9.451 6.867l11.148 1.62-8.066 7.863c-2.959 2.884-4.309 7.038-3.61 11.109l1.904 11.104-9.973-5.243c-1.829-.961-3.833-1.441-5.839-1.441s-4.012.48-5.841 1.441l-9.972 5.243 1.904-11.104c.699-4.072-.651-8.227-3.609-11.109l-8.067-7.864z" fill="#1e1d21"/></g></svg>