<svg xmlns="http://www.w3.org/2000/svg" height="512pt" version="1.1" viewBox="0 -31 512 512" width="512pt">
<g id="surface1">
<path d="M 504.882812 212.242188 C 500.429688 209.488281 494.921875 209.238281 490.289062 211.582031 L 368.289062 271.582031 C 360.878906 275.289062 357.875 284.296875 361.582031 291.710938 L 361.582031 338.289062 C 357.875 345.703125 360.878906 354.710938 368.289062 358.417969 L 490.289062 418.417969 C 492.414062 419.472656 494.699219 420 497 420 C 499.738281 420 502.480469 419.253906 504.882812 417.757812 C 509.304688 415.019531 512 410.199219 512 405 L 512 225 C 512 219.800781 509.304688 214.980469 504.882812 212.242188 Z M 504.882812 212.242188 " style=" stroke:none;fill-rule:nonzero;fill:rgb(16.078431%,16.078431%,16.078431%);fill-opacity:1;" />
<path d="M 345 180 L 45 180 C 20.097656 180 0 200.097656 0 225 L 0 405 C 0 429.902344 20.097656 450 45 450 L 345 450 C 369.902344 450 390 429.902344 390 405 L 390 225 C 390 200.097656 369.902344 180 345 180 Z M 345 180 " style=" stroke:none;fill-rule:nonzero;fill:rgb(43.137255%,43.137255%,43.137255%);fill-opacity:1;" />
<path d="M 390 225 L 390 405 C 390 429.902344 369.902344 450 345 450 L 195 450 L 195 180 L 345 180 C 369.902344 180 390 200.097656 390 225 Z M 390 225 " style=" stroke:none;fill-rule:nonzero;fill:rgb(35.294118%,35.294118%,35.294118%);fill-opacity:1;" />
<path d="M 135 270 L 255 270 L 255 360 L 135 360 Z M 135 270 " style=" stroke:none;fill-rule:nonzero;fill:rgb(26.666667%,26.666667%,26.666667%);fill-opacity:1;" />
<path d="M 195 270 L 255 270 L 255 360 L 195 360 Z M 195 270 " style=" stroke:none;fill-rule:nonzero;fill:rgb(16.078431%,16.078431%,16.078431%);fill-opacity:1;" />
<path d="M 120 300 L 240 300 L 240 330 L 120 330 Z M 120 300 " style=" stroke:none;fill-rule:nonzero;fill:rgb(100%,89.411765%,43.921569%);fill-opacity:1;" />
<path d="M 195 300 L 240 300 L 240 330 L 195 330 Z M 195 300 " style=" stroke:none;fill-rule:nonzero;fill:rgb(100%,83.137255%,0%);fill-opacity:1;" />
<path d="M 135 360 C 110.1875 360 90 339.8125 90 315 C 90 290.1875 110.1875 270 135 270 C 159.8125 270 180 290.1875 180 315 C 180 339.8125 159.8125 360 135 360 Z M 135 360 " style=" stroke:none;fill-rule:nonzero;fill:rgb(26.666667%,26.666667%,26.666667%);fill-opacity:1;" />
<path d="M 255 360 C 230.1875 360 210 339.8125 210 315 C 210 290.1875 230.1875 270 255 270 C 279.8125 270 300 290.1875 300 315 C 300 339.8125 279.8125 360 255 360 Z M 255 360 " style=" stroke:none;fill-rule:nonzero;fill:rgb(16.078431%,16.078431%,16.078431%);fill-opacity:1;" />
<path d="M 135 300 C 126.722656 300 120 306.722656 120 315 C 120 323.277344 126.722656 330 135 330 C 143.277344 330 150 323.277344 150 315 C 150 306.722656 143.277344 300 135 300 Z M 135 300 " style=" stroke:none;fill-rule:nonzero;fill:rgb(100%,89.411765%,43.921569%);fill-opacity:1;" />
<path d="M 255 300 C 246.722656 300 240 306.722656 240 315 C 240 323.277344 246.722656 330 255 330 C 263.277344 330 270 323.277344 270 315 C 270 306.722656 263.277344 300 255 300 Z M 255 300 " style=" stroke:none;fill-rule:nonzero;fill:rgb(100%,83.137255%,0%);fill-opacity:1;" />
<path d="M 195 90 C 195 139.707031 154.707031 180 105 180 C 55.292969 180 15 139.707031 15 90 C 15 40.292969 55.292969 0 105 0 C 154.707031 0 195 40.292969 195 90 Z M 195 90 " style=" stroke:none;fill-rule:nonzero;fill:rgb(26.666667%,26.666667%,26.666667%);fill-opacity:1;" />
<path d="M 105 135 C 80.1875 135 60 114.8125 60 90 C 60 65.1875 80.1875 45 105 45 C 129.8125 45 150 65.1875 150 90 C 150 114.8125 129.8125 135 105 135 Z M 105 135 " style=" stroke:none;fill-rule:nonzero;fill:rgb(100%,89.411765%,43.921569%);fill-opacity:1;" />
<path d="M 375 90 C 375 139.707031 334.707031 180 285 180 C 235.292969 180 195 139.707031 195 90 C 195 40.292969 235.292969 0 285 0 C 334.707031 0 375 40.292969 375 90 Z M 375 90 " style=" stroke:none;fill-rule:nonzero;fill:rgb(16.078431%,16.078431%,16.078431%);fill-opacity:1;" />
<path d="M 285 135 C 260.1875 135 240 114.8125 240 90 C 240 65.1875 260.1875 45 285 45 C 309.8125 45 330 65.1875 330 90 C 330 114.8125 309.8125 135 285 135 Z M 285 135 " style=" stroke:none;fill-rule:nonzero;fill:rgb(100%,83.137255%,0%);fill-opacity:1;" />
</g>
</svg>